<svg xmlns="http://www.w3.org/2000/svg" width="268.3750915527344" height="289.30438232421875" viewBox="-30.825624465942383 -40.45055389404297 268.3750915527344 289.30438232421875"><title>Neo4j Graph Visualization</title><desc>Created using Neo4j (http://www.neo4j.com/)</desc><g class="layer relationships"><g class="relationship" transform="translate(116.03027885155807 -11.450555762380464) rotate(391.4044545649233)"><path class="outline" fill="#A5ABB6" stroke="none" d="M 25 0.5 L 33.30754491234185 0.5 L 33.30754491234185 -0.5 L 25 -0.5 Z M 68.09087773704888 0.5 L 76.39842264939072 0.5 L 76.39842264939072 3.5 L 83.39842264939072 0 L 76.39842264939072 -3.5 L 76.39842264939072 -0.5 L 68.09087773704888 -0.5 Z"/><text text-anchor="middle" pointer-events="none" font-size="8px" fill="#000000" x="50.69921132469536" y="3" font-family="sans-serif">ORIGIN</text></g><g class="relationship" transform="translate(116.03027885155807 -11.450555762380464) rotate(509.5665281006351)"><path class="outline" fill="#A5ABB6" stroke="none" d="M 25 0.5 L 25.874750455787094 0.5 L 25.874750455787094 -0.5 L 25 -0.5 Z M 74.8747504557871 0.5 L 75.74950091157419 0.5 L 75.74950091157419 3.5 L 82.74950091157419 0 L 75.74950091157419 -3.5 L 75.74950091157419 -0.5 L 74.8747504557871 -0.5 Z"/><text text-anchor="middle" pointer-events="none" font-size="8px" fill="#000000" x="50.374750455787094" y="3" transform="rotate(180 50.374750455787094 0)" font-family="sans-serif">DESTINA…</text></g><g class="relationship" transform="translate(-1.8256237403862643 147.93745041335856) rotate(283.39139533813875)"><path class="outline" fill="#A5ABB6" stroke="none" d="M 25 0.5 L 32.977416585837304 0.5 L 32.977416585837304 -0.5 L 25 -0.5 Z M 67.76074941054434 0.5 L 75.73816599638164 0.5 L 75.73816599638164 3.5 L 82.73816599638164 0 L 75.73816599638164 -3.5 L 75.73816599638164 -0.5 L 67.76074941054434 -0.5 Z"/><text text-anchor="middle" pointer-events="none" font-size="8px" fill="#000000" x="50.36908299819082" y="3" font-family="sans-serif">ORIGIN</text></g><g class="relationship" transform="translate(-1.8256237403862643 147.93745041335856) rotate(401.57095721844047)"><path class="outline" fill="#A5ABB6" stroke="none" d="M 25 0.5 L 26.190852729545973 0.5 L 26.190852729545973 -0.5 L 25 -0.5 Z M 75.19085272954598 0.5 L 76.38170545909195 0.5 L 76.38170545909195 3.5 L 83.38170545909195 0 L 76.38170545909195 -3.5 L 76.38170545909195 -0.5 L 75.19085272954598 -0.5 Z"/><text text-anchor="middle" pointer-events="none" font-size="8px" fill="#000000" x="50.69085272954597" y="3" font-family="sans-serif">DESTINA…</text></g></g><g class="layer nodes"><g class="node" transform="translate(208.54944776965607,45.033259756583846)"><circle class="outline" cx="0" cy="0" r="25" fill="#FFC454" stroke="#d7a013" stroke-width="2px"/><text text-anchor="middle" pointer-events="none" font-family="sans-serif" dy="1.5625" font-size="25" fill="#2A2C34"/><text text-anchor="middle" pointer-events="none" x="0" y="5" font-size="10px" fill="#2A2C34" font-family="sans-serif"> MSN</text></g><g class="node" transform="translate(79.2584729032221,219.8538139873835)"><circle class="outline" cx="0" cy="0" r="25" fill="#FFC454" stroke="#d7a013" stroke-width="2px"/><text text-anchor="middle" pointer-events="none" font-family="sans-serif" dy="1.5625" font-size="25" fill="#2A2C34"/><text text-anchor="middle" pointer-events="none" x="0" y="5" font-size="10px" fill="#2A2C34" font-family="sans-serif"> GRR</text></g><g class="node" transform="translate(116.03027885155807,-11.450555762380464)"><circle class="outline" cx="0" cy="0" r="25" fill="#ECB5C9" stroke="#da7298" stroke-width="2px"/><text text-anchor="middle" pointer-events="none" font-family="sans-serif" dy="1.5625" font-size="25" fill="#2A2C34"/><text text-anchor="middle" pointer-events="none" x="0" y="5" font-size="10px" fill="#2A2C34" font-family="sans-serif"> 11/30/2…</text></g><g class="node" transform="translate(23.12673047928812,43.12861285106239)"><circle class="outline" cx="0" cy="0" r="25" fill="#FFC454" stroke="#d7a013" stroke-width="2px"/><text text-anchor="middle" pointer-events="none" font-family="sans-serif" dy="1.5625" font-size="25" fill="#2A2C34"/><text text-anchor="middle" pointer-events="none" x="0" y="5" font-size="10px" fill="#2A2C34" font-family="sans-serif"> ORD</text></g><g class="node" transform="translate(-1.8256237403862643,147.93745041335856)"><circle class="outline" cx="0" cy="0" r="25" fill="#ECB5C9" stroke="#da7298" stroke-width="2px"/><text text-anchor="middle" pointer-events="none" font-family="sans-serif" dy="1.5625" font-size="25" fill="#2A2C34"/><text text-anchor="middle" pointer-events="none" x="0" y="5" font-size="10px" fill="#2A2C34" font-family="sans-serif"> 11/17/2…</text></g></g></svg>