<svg xmlns="http://www.w3.org/2000/svg" width="656.7613525390625" height="649.1184692382812" viewBox="-234.8392333984375 -218.3848419189453 656.7613525390625 649.1184692382812"><title>Neo4j Graph Visualization</title><desc>Created using Neo4j (http://www.neo4j.com/)</desc><g class="layer relationships"><g class="relationship" transform="translate(236.76346412973407 132.0582644115229) rotate(182.081373066143)"><path class="outline" fill="#A5ABB6" stroke="none" d="M 25 0.5 L 61.88249638532618 0.5 L 61.88249638532618 -0.5 L 25 -0.5 Z M 96.66582921003321 0.5 L 133.5483255953594 0.5 L 133.5483255953594 3.5 L 140.5483255953594 0 L 133.5483255953594 -3.5 L 133.5483255953594 -0.5 L 96.66582921003321 -0.5 Z"/><text text-anchor="middle" pointer-events="none" font-size="8px" fill="#000000" x="79.2741627976797" y="3" transform="rotate(180 79.2741627976797 0)" font-family="sans-serif">ORIGIN</text></g><g class="relationship" transform="translate(236.76346412973407 132.0582644115229) rotate(355.2817754951607)"><path class="outline" fill="#A5ABB6" stroke="none" d="M 25 0.5 L 44.88647927476622 0.5 L 44.88647927476622 -0.5 L 25 -0.5 Z M 104.80314721299864 0.5 L 124.68962648776485 0.5 L 124.68962648776485 3.5 L 131.68962648776485 0 L 124.68962648776485 -3.5 L 124.68962648776485 -0.5 L 104.80314721299864 -0.5 Z"/><text text-anchor="middle" pointer-events="none" font-size="8px" fill="#000000" x="74.84481324388243" y="3" font-family="sans-serif">DESTINATION</text></g><g class="relationship" transform="translate(171.81108271471666 296.64101791330364) rotate(239.50039187824734)"><path class="outline" fill="#A5ABB6" stroke="none" d="M 25 0.5 L 78.10369871139567 0.5 L 78.10369871139567 -0.5 L 25 -0.5 Z M 112.8870315361027 0.5 L 165.99073024749836 0.5 L 165.99073024749836 3.5 L 172.99073024749836 0 L 165.99073024749836 -3.5 L 165.99073024749836 -0.5 L 112.8870315361027 -0.5 Z"/><text text-anchor="middle" pointer-events="none" font-size="8px" fill="#000000" x="95.49536512374918" y="3" transform="rotate(180 95.49536512374918 0)" font-family="sans-serif">ORIGIN</text></g><g class="relationship" transform="translate(171.81108271471666 296.64101791330364) rotate(488.5761788244667)"><path class="outline" fill="#A5ABB6" stroke="none" d="M 25 0.5 L 33.75536644440719 0.5 L 33.75536644440719 -0.5 L 25 -0.5 Z M 93.67203438263961 0.5 L 102.4274008270468 0.5 L 102.4274008270468 3.5 L 109.4274008270468 0 L 102.4274008270468 -3.5 L 102.4274008270468 -0.5 L 93.67203438263961 -0.5 Z"/><text text-anchor="middle" pointer-events="none" font-size="8px" fill="#000000" x="63.7137004135234" y="3" transform="rotate(180 63.7137004135234 0)" font-family="sans-serif">DESTINATION</text></g><g class="relationship" transform="translate(78.84986722727795 250.45501713553787) rotate(266.5383999543724)"><path class="outline" fill="#A5ABB6" stroke="none" d="M 25 0.5 L 41.42667065392539 0.5 L 41.42667065392539 -0.5 L 25 -0.5 Z M 76.21000347863242 0.5 L 92.63667413255781 0.5 L 92.63667413255781 3.5 L 99.63667413255781 0 L 92.63667413255781 -3.5 L 92.63667413255781 -0.5 L 76.21000347863242 -0.5 Z"/><text text-anchor="middle" pointer-events="none" font-size="8px" fill="#000000" x="58.81833706627891" y="3" transform="rotate(180 58.81833706627891 0)" font-family="sans-serif">ORIGIN</text></g><g class="relationship" transform="translate(78.84986722727795 250.45501713553787) rotate(446.5430964395722)"><path class="outline" fill="#A5ABB6" stroke="none" d="M 25 0.5 L 42.318860376982215 0.5 L 42.318860376982215 -0.5 L 25 -0.5 Z M 102.23552831521464 0.5 L 119.55438869219685 0.5 L 119.55438869219685 3.5 L 126.55438869219685 0 L 119.55438869219685 -3.5 L 119.55438869219685 -0.5 L 102.23552831521464 -0.5 Z"/><text text-anchor="middle" pointer-events="none" font-size="8px" fill="#000000" x="72.27719434609843" y="3" font-family="sans-serif">DESTINATION</text></g><g class="relationship" transform="translate(223.59988358522324 196.5269556871999) rotate(204.83720922349352)"><path class="outline" fill="#A5ABB6" stroke="none" d="M 25 0.5 L 63.00624294689614 0.5 L 63.00624294689614 -0.5 L 25 -0.5 Z M 97.78957577160317 0.5 L 135.7958187184993 0.5 L 135.7958187184993 3.5 L 142.7958187184993 0 L 135.7958187184993 -3.5 L 135.7958187184993 -0.5 L 97.78957577160317 -0.5 Z"/><text text-anchor="middle" pointer-events="none" font-size="8px" fill="#000000" x="80.39790935924965" y="3" transform="rotate(180 80.39790935924965 0)" font-family="sans-serif">ORIGIN</text></g><g class="relationship" transform="translate(223.59988358522324 196.5269556871999) rotate(387.43552384179276)"><path class="outline" fill="#A5ABB6" stroke="none" d="M 25 0.5 L 44.076773646857035 0.5 L 44.076773646857035 -0.5 L 25 -0.5 Z M 103.99344158508946 0.5 L 123.07021523194649 0.5 L 123.07021523194649 3.5 L 130.0702152319465 0 L 123.07021523194649 -3.5 L 123.07021523194649 -0.5 L 103.99344158508946 -0.5 Z"/><text text-anchor="middle" pointer-events="none" font-size="8px" fill="#000000" x="74.03510761597325" y="3" font-family="sans-serif">DESTINATION</text></g><g class="relationship" transform="translate(111.95024305433068 300.36072512341354) rotate(256.88081986105226)"><path class="outline" fill="#A5ABB6" stroke="none" d="M 25 0.5 L 68.60159474056624 0.5 L 68.60159474056624 -0.5 L 25 -0.5 Z M 103.38492756527327 0.5 L 146.98652230583951 0.5 L 146.98652230583951 3.5 L 153.98652230583951 0 L 146.98652230583951 -3.5 L 146.98652230583951 -0.5 L 103.38492756527327 -0.5 Z"/><text text-anchor="middle" pointer-events="none" font-size="8px" fill="#000000" x="85.99326115291976" y="3" transform="rotate(180 85.99326115291976 0)" font-family="sans-serif">ORIGIN</text></g><g class="relationship" transform="translate(111.95024305433068 300.36072512341354) rotate(463.2991675308509)"><path class="outline" fill="#A5ABB6" stroke="none" d="M 25 0.5 L 26.816548889469388 0.5 L 26.816548889469388 -0.5 L 25 -0.5 Z M 70.34988171417642 0.5 L 72.16643060364581 0.5 L 72.16643060364581 3.5 L 79.16643060364581 0 L 72.16643060364581 -3.5 L 72.16643060364581 -0.5 L 70.34988171417642 -0.5 Z"/><text text-anchor="middle" pointer-events="none" font-size="8px" fill="#000000" x="48.583215301822904" y="3" transform="rotate(180 48.583215301822904 0)" font-family="sans-serif">DESTIN…</text></g><g class="relationship" transform="translate(100.09350331545924 -35.328768545595864) rotate(460.1082472394049)"><path class="outline" fill="#A5ABB6" stroke="none" d="M 25 0.5 L 61.067770172074745 0.5 L 61.067770172074745 -0.5 L 25 -0.5 Z M 95.85110299678178 0.5 L 131.91887316885652 0.5 L 131.91887316885652 3.5 L 138.91887316885652 0 L 131.91887316885652 -3.5 L 131.91887316885652 -0.5 L 95.85110299678178 -0.5 Z"/><text text-anchor="middle" pointer-events="none" font-size="8px" fill="#000000" x="78.45943658442826" y="3" transform="rotate(180 78.45943658442826 0)" font-family="sans-serif">ORIGIN</text></g><g class="relationship" transform="translate(100.09350331545924 -35.328768545595864) rotate(284.0080922294209)"><path class="outline" fill="#A5ABB6" stroke="none" d="M 25 0.5 L 45.93060964058442 0.5 L 45.93060964058442 -0.5 L 25 -0.5 Z M 105.84727757881684 0.5 L 126.77788721940126 0.5 L 126.77788721940126 3.5 L 133.77788721940126 0 L 126.77788721940126 -3.5 L 126.77788721940126 -0.5 L 105.84727757881684 -0.5 Z"/><text text-anchor="middle" pointer-events="none" font-size="8px" fill="#000000" x="75.88894360970063" y="3" font-family="sans-serif">DESTINATION</text></g><g class="relationship" transform="translate(221.50855768141037 5.354449541767734) rotate(501.21388276753964)"><path class="outline" fill="#A5ABB6" stroke="none" d="M 25 0.5 L 75.44327306834964 0.5 L 75.44327306834964 -0.5 L 25 -0.5 Z M 110.22660589305667 0.5 L 160.6698789614063 0.5 L 160.6698789614063 3.5 L 167.6698789614063 0 L 160.6698789614063 -3.5 L 160.6698789614063 -0.5 L 110.22660589305667 -0.5 Z"/><text text-anchor="middle" pointer-events="none" font-size="8px" fill="#000000" x="92.83493948070316" y="3" transform="rotate(180 92.83493948070316 0)" font-family="sans-serif">ORIGIN</text></g><g class="relationship" transform="translate(221.50855768141037 5.354449541767734) rotate(322.6406865630962)"><path class="outline" fill="#A5ABB6" stroke="none" d="M 25 0.5 L 26.137650741787063 0.5 L 26.137650741787063 -0.5 L 25 -0.5 Z M 69.6709835664941 0.5 L 70.80863430828116 0.5 L 70.80863430828116 3.5 L 77.80863430828116 0 L 70.80863430828116 -3.5 L 70.80863430828116 -0.5 L 69.6709835664941 -0.5 Z"/><text text-anchor="middle" pointer-events="none" font-size="8px" fill="#000000" x="47.90431715414058" y="3" font-family="sans-serif">DESTIN…</text></g><g class="relationship" transform="translate(-39.71411956849101 58.93037323186973) rotate(391.1501693325962)"><path class="outline" fill="#A5ABB6" stroke="none" d="M 25 0.5 L 43.981318287161784 0.5 L 43.981318287161784 -0.5 L 25 -0.5 Z M 78.76465111186882 0.5 L 97.7459693990306 0.5 L 97.7459693990306 3.5 L 104.7459693990306 0 L 97.7459693990306 -3.5 L 97.7459693990306 -0.5 L 78.76465111186882 -0.5 Z"/><text text-anchor="middle" pointer-events="none" font-size="8px" fill="#000000" x="61.3729846995153" y="3" font-family="sans-serif">ORIGIN</text></g><g class="relationship" transform="translate(-39.71411956849101 58.93037323186973) rotate(218.4278744447342)"><path class="outline" fill="#A5ABB6" stroke="none" d="M 25 0.5 L 46.867090937219444 0.5 L 46.867090937219444 -0.5 L 25 -0.5 Z M 106.78375887545187 0.5 L 128.6508498126713 0.5 L 128.6508498126713 3.5 L 135.6508498126713 0 L 128.6508498126713 -3.5 L 128.6508498126713 -0.5 L 106.78375887545187 -0.5 Z"/><text text-anchor="middle" pointer-events="none" font-size="8px" fill="#000000" x="76.82542490633566" y="3" transform="rotate(180 76.82542490633566 0)" font-family="sans-serif">DESTINATION</text></g><g class="relationship" transform="translate(40.13321492724205 -33.3758964439575) rotate(438.9298137046464)"><path class="outline" fill="#A5ABB6" stroke="none" d="M 25 0.5 L 60.33047782106176 0.5 L 60.33047782106176 -0.5 L 25 -0.5 Z M 95.1138106457688 0.5 L 130.44428846683056 0.5 L 130.44428846683056 3.5 L 137.44428846683056 0 L 130.44428846683056 -3.5 L 130.44428846683056 -0.5 L 95.1138106457688 -0.5 Z"/><text text-anchor="middle" pointer-events="none" font-size="8px" fill="#000000" x="77.72214423341528" y="3" font-family="sans-serif">ORIGIN</text></g><g class="relationship" transform="translate(40.13321492724205 -33.3758964439575) rotate(254.4166331689101)"><path class="outline" fill="#A5ABB6" stroke="none" d="M 25 0.5 L 44.6429865609591 0.5 L 44.6429865609591 -0.5 L 25 -0.5 Z M 104.55965449919152 0.5 L 124.20264106015063 0.5 L 124.20264106015063 3.5 L 131.20264106015063 0 L 124.20264106015063 -3.5 L 124.20264106015063 -0.5 L 104.55965449919152 -0.5 Z"/><text text-anchor="middle" pointer-events="none" font-size="8px" fill="#000000" x="74.60132053007531" y="3" transform="rotate(180 74.60132053007531 0)" font-family="sans-serif">DESTINATION</text></g><g class="relationship" transform="translate(138.71063829845377 246.781462165961) rotate(240.83278381382536)"><path class="outline" fill="#A5ABB6" stroke="none" d="M 25 0.5 L 48.24230565087343 0.5 L 48.24230565087343 -0.5 L 25 -0.5 Z M 83.02563847558046 0.5 L 106.2679441264539 0.5 L 106.2679441264539 3.5 L 113.2679441264539 0 L 106.2679441264539 -3.5 L 106.2679441264539 -0.5 L 83.02563847558046 -0.5 Z"/><text text-anchor="middle" pointer-events="none" font-size="8px" fill="#000000" x="65.63397206322695" y="3" transform="rotate(180 65.63397206322695 0)" font-family="sans-serif">ORIGIN</text></g><g class="relationship" transform="translate(138.71063829845377 246.781462165961) rotate(468.12545378606126)"><path class="outline" fill="#A5ABB6" stroke="none" d="M 25 0.5 L 48.063041073101616 0.5 L 48.063041073101616 -0.5 L 25 -0.5 Z M 107.97970901133404 0.5 L 131.04275008443565 0.5 L 131.04275008443565 3.5 L 138.04275008443565 0 L 131.04275008443565 -3.5 L 131.04275008443565 -0.5 L 107.97970901133404 -0.5 Z"/><text text-anchor="middle" pointer-events="none" font-size="8px" fill="#000000" x="78.02137504221783" y="3" transform="rotate(180 78.02137504221783 0)" font-family="sans-serif">DESTINATION</text></g><g class="relationship" transform="translate(167.27987053239048 -20.115071044048733) rotate(483.28515563787704)"><path class="outline" fill="#A5ABB6" stroke="none" d="M 25 0.5 L 66.5303619146262 0.5 L 66.5303619146262 -0.5 L 25 -0.5 Z M 101.31369473933323 0.5 L 142.84405665395943 0.5 L 142.84405665395943 3.5 L 149.84405665395943 0 L 142.84405665395943 -3.5 L 142.84405665395943 -0.5 L 101.31369473933323 -0.5 Z"/><text text-anchor="middle" pointer-events="none" font-size="8px" fill="#000000" x="83.92202832697971" y="3" transform="rotate(180 83.92202832697971 0)" font-family="sans-serif">ORIGIN</text></g><g class="relationship" transform="translate(167.27987053239048 -20.115071044048733) rotate(344.8077242136799)"><path class="outline" fill="#A5ABB6" stroke="none" d="M 25 0.5 L 36.97606460344835 0.5 L 36.97606460344835 -0.5 L 25 -0.5 Z M 96.89273254168077 0.5 L 108.86879714512912 0.5 L 108.86879714512912 3.5 L 115.86879714512912 0 L 108.86879714512912 -3.5 L 108.86879714512912 -0.5 L 96.89273254168077 -0.5 Z"/><text text-anchor="middle" pointer-events="none" font-size="8px" fill="#000000" x="66.93439857256456" y="3" font-family="sans-serif">DESTINATION</text></g><g class="relationship" transform="translate(-25.86927977455816 -10.349550222582533) rotate(414.52678695073337)"><path class="outline" fill="#A5ABB6" stroke="none" d="M 25 0.5 L 62.84942202775105 0.5 L 62.84942202775105 -0.5 L 25 -0.5 Z M 97.63275485245808 0.5 L 135.48217688020912 0.5 L 135.48217688020912 3.5 L 142.48217688020912 0 L 135.48217688020912 -3.5 L 135.48217688020912 -0.5 L 97.63275485245808 -0.5 Z"/><text text-anchor="middle" pointer-events="none" font-size="8px" fill="#000000" x="80.24108844010456" y="3" font-family="sans-serif">ORIGIN</text></g><g class="relationship" transform="translate(-25.86927977455816 -10.349550222582533) rotate(192.34317768432697)"><path class="outline" fill="#A5ABB6" stroke="none" d="M 25 0.5 L 38.04308758303081 0.5 L 38.04308758303081 -0.5 L 25 -0.5 Z M 97.95975552126323 0.5 L 111.00284310429404 0.5 L 111.00284310429404 3.5 L 118.00284310429404 0 L 111.00284310429404 -3.5 L 111.00284310429404 -0.5 L 97.95975552126323 -0.5 Z"/><text text-anchor="middle" pointer-events="none" font-size="8px" fill="#000000" x="68.00142155214702" y="3" transform="rotate(180 68.00142155214702 0)" font-family="sans-serif">DESTINATION</text></g><g class="relationship" transform="translate(19.007570491814942 254.19477291930508) rotate(292.207717878002)"><path class="outline" fill="#A5ABB6" stroke="none" d="M 25 0.5 L 48.316750568262606 0.5 L 48.316750568262606 -0.5 L 25 -0.5 Z M 83.10008339296964 0.5 L 106.41683396123224 0.5 L 106.41683396123224 3.5 L 113.41683396123224 0 L 106.41683396123224 -3.5 L 106.41683396123224 -0.5 L 83.10008339296964 -0.5 Z"/><text text-anchor="middle" pointer-events="none" font-size="8px" fill="#000000" x="65.70841698061612" y="3" font-family="sans-serif">ORIGIN</text></g><g class="relationship" transform="translate(19.007570491814942 254.19477291930508) rotate(424.94191498305406)"><path class="outline" fill="#A5ABB6" stroke="none" d="M 25 0.5 L 47.975769900490064 0.5 L 47.975769900490064 -0.5 L 25 -0.5 Z M 107.89243783872249 0.5 L 130.86820773921255 0.5 L 130.86820773921255 3.5 L 137.86820773921255 0 L 130.86820773921255 -3.5 L 130.86820773921255 -0.5 L 107.89243783872249 -0.5 Z"/><text text-anchor="middle" pointer-events="none" font-size="8px" fill="#000000" x="77.93410386960628" y="3" font-family="sans-serif">DESTINATION</text></g><g class="relationship" transform="translate(-70.88207126276566 212.93591199225645) rotate(328.57447142571596)"><path class="outline" fill="#A5ABB6" stroke="none" d="M 25 0.5 L 62.43385479856097 0.5 L 62.43385479856097 -0.5 L 25 -0.5 Z M 97.217187623268 0.5 L 134.65104242182898 0.5 L 134.65104242182898 3.5 L 141.65104242182898 0 L 134.65104242182898 -3.5 L 134.65104242182898 -0.5 L 97.217187623268 -0.5 Z"/><text text-anchor="middle" pointer-events="none" font-size="8px" fill="#000000" x="79.82552121091449" y="3" font-family="sans-serif">ORIGIN</text></g><g class="relationship" transform="translate(-70.88207126276566 212.93591199225645) rotate(531.623449857168)"><path class="outline" fill="#A5ABB6" stroke="none" d="M 25 0.5 L 34.747869526446806 0.5 L 34.747869526446806 -0.5 L 25 -0.5 Z M 94.66453746467923 0.5 L 104.41240699112603 0.5 L 104.41240699112603 3.5 L 111.41240699112603 0 L 104.41240699112603 -3.5 L 104.41240699112603 -0.5 L 94.66453746467923 -0.5 Z"/><text text-anchor="middle" pointer-events="none" font-size="8px" fill="#000000" x="64.70620349556302" y="3" transform="rotate(180 64.70620349556302 0)" font-family="sans-serif">DESTINATION</text></g><g class="relationship" transform="translate(-91.3838693333761 156.61108986769923) rotate(349.3607675943498)"><path class="outline" fill="#A5ABB6" stroke="none" d="M 25 0.5 L 61.885455643011284 0.5 L 61.885455643011284 -0.5 L 25 -0.5 Z M 96.66878846771831 0.5 L 133.5542441107296 0.5 L 133.5542441107296 3.5 L 140.5542441107296 0 L 133.5542441107296 -3.5 L 133.5542441107296 -0.5 L 96.66878846771831 -0.5 Z"/><text text-anchor="middle" pointer-events="none" font-size="8px" fill="#000000" x="79.2771220553648" y="3" font-family="sans-serif">ORIGIN</text></g><g class="relationship" transform="translate(-91.3838693333761 156.61108986769923) rotate(506.3468406872754)"><path class="outline" fill="#A5ABB6" stroke="none" d="M 25 0.5 L 35.291271533743355 0.5 L 35.291271533743355 -0.5 L 25 -0.5 Z M 95.20793947197578 0.5 L 105.49921100571913 0.5 L 105.49921100571913 3.5 L 112.49921100571913 0 L 105.49921100571913 -3.5 L 105.49921100571913 -0.5 L 95.20793947197578 -0.5 Z"/><text text-anchor="middle" pointer-events="none" font-size="8px" fill="#000000" x="65.24960550285957" y="3" transform="rotate(180 65.24960550285957 0)" font-family="sans-serif">DESTINATION</text></g><g class="relationship" transform="translate(-7.678189016482713 307.79386165980026) rotate(293.4936941875861)"><path class="outline" fill="#A5ABB6" stroke="none" d="M 25 0.5 L 78.19640147528331 0.5 L 78.19640147528331 -0.5 L 25 -0.5 Z M 112.97973429999034 0.5 L 166.17613577527365 0.5 L 166.17613577527365 3.5 L 173.17613577527365 0 L 166.17613577527365 -3.5 L 166.17613577527365 -0.5 L 112.97973429999034 -0.5 Z"/><text text-anchor="middle" pointer-events="none" font-size="8px" fill="#000000" x="95.58806788763683" y="3" font-family="sans-serif">ORIGIN</text></g><g class="relationship" transform="translate(-7.678189016482713 307.79386165980026) rotate(404.478245957048)"><path class="outline" fill="#A5ABB6" stroke="none" d="M 25 0.5 L 33.58036972719354 0.5 L 33.58036972719354 -0.5 L 25 -0.5 Z M 93.49703766542596 0.5 L 102.0774073926195 0.5 L 102.0774073926195 3.5 L 109.0774073926195 0 L 102.0774073926195 -3.5 L 102.0774073926195 -0.5 L 93.49703766542596 -0.5 Z"/><text text-anchor="middle" pointer-events="none" font-size="8px" fill="#000000" x="63.53870369630975" y="3" font-family="sans-serif">DESTINATION</text></g><g class="relationship" transform="translate(-80.1894727281698 14.900564060371147) rotate(396.2624527619832)"><path class="outline" fill="#A5ABB6" stroke="none" d="M 25 0.5 L 73.06270021638525 0.5 L 73.06270021638525 -0.5 L 25 -0.5 Z M 107.84603304109228 0.5 L 155.90873325747754 0.5 L 155.90873325747754 3.5 L 162.90873325747754 0 L 155.90873325747754 -3.5 L 155.90873325747754 -0.5 L 107.84603304109228 -0.5 Z"/><text text-anchor="middle" pointer-events="none" font-size="8px" fill="#000000" x="90.45436662873877" y="3" font-family="sans-serif">ORIGIN</text></g><g class="relationship" transform="translate(-80.1894727281698 14.900564060371147) rotate(213.17656396063012)"><path class="outline" fill="#A5ABB6" stroke="none" d="M 25 0.5 L 25.73590641993863 0.5 L 25.73590641993863 -0.5 L 25 -0.5 Z M 69.26923924464566 0.5 L 70.00514566458429 0.5 L 70.00514566458429 3.5 L 77.00514566458429 0 L 70.00514566458429 -3.5 L 70.00514566458429 -0.5 L 69.26923924464566 -0.5 Z"/><text text-anchor="middle" pointer-events="none" font-size="8px" fill="#000000" x="47.502572832292145" y="3" transform="rotate(180 47.502572832292145 0)" font-family="sans-serif">DESTIN…</text></g><g class="relationship" transform="translate(-97.665978519359 74.15837193355686) rotate(377.0687600066048)"><path class="outline" fill="#A5ABB6" stroke="none" d="M 25 0.5 L 67.4967283943008 0.5 L 67.4967283943008 -0.5 L 25 -0.5 Z M 102.28006121900783 0.5 L 144.77678961330864 0.5 L 144.77678961330864 3.5 L 151.77678961330864 0 L 144.77678961330864 -3.5 L 144.77678961330864 -0.5 L 102.28006121900783 -0.5 Z"/><text text-anchor="middle" pointer-events="none" font-size="8px" fill="#000000" x="84.88839480665432" y="3" font-family="sans-serif">ORIGIN</text></g><g class="relationship" transform="translate(-97.665978519359 74.15837193355686) rotate(239.45752019976106)"><path class="outline" fill="#A5ABB6" stroke="none" d="M 25 0.5 L 33.34968077793205 0.5 L 33.34968077793205 -0.5 L 25 -0.5 Z M 93.26634871616447 0.5 L 101.61602949409652 0.5 L 101.61602949409652 3.5 L 108.61602949409652 0 L 101.61602949409652 -3.5 L 101.61602949409652 -0.5 L 93.26634871616447 -0.5 Z"/><text text-anchor="middle" pointer-events="none" font-size="8px" fill="#000000" x="63.30801474704826" y="3" transform="rotate(180 63.30801474704826 0)" font-family="sans-serif">DESTINATION</text></g><g class="relationship" transform="translate(52.13138258342138 304.05864845358053) rotate(276.15373842717906)"><path class="outline" fill="#A5ABB6" stroke="none" d="M 25 0.5 L 68.63062758763841 0.5 L 68.63062758763841 -0.5 L 25 -0.5 Z M 103.41396041234545 0.5 L 147.04458799998386 0.5 L 147.04458799998386 3.5 L 154.04458799998386 0 L 147.04458799998386 -3.5 L 147.04458799998386 -0.5 L 103.41396041234545 -0.5 Z"/><text text-anchor="middle" pointer-events="none" font-size="8px" fill="#000000" x="86.02229399999193" y="3" font-family="sans-serif">ORIGIN</text></g><g class="relationship" transform="translate(52.13138258342138 304.05864845358053) rotate(429.841615930754)"><path class="outline" fill="#A5ABB6" stroke="none" d="M 25 0.5 L 26.757654554845075 0.5 L 26.757654554845075 -0.5 L 25 -0.5 Z M 70.2909873795521 0.5 L 72.04864193439718 0.5 L 72.04864193439718 3.5 L 79.04864193439718 0 L 72.04864193439718 -3.5 L 72.04864193439718 -0.5 L 70.2909873795521 -0.5 Z"/><text text-anchor="middle" pointer-events="none" font-size="8px" fill="#000000" x="48.52432096719859" y="3" font-family="sans-serif">DESTIN…</text></g><g class="relationship" transform="translate(230.98159222850737 64.51741879934718) rotate(518.9244536590708)"><path class="outline" fill="#A5ABB6" stroke="none" d="M 25 0.5 L 64.65973204122622 0.5 L 64.65973204122622 -0.5 L 25 -0.5 Z M 99.44306486593325 0.5 L 139.10279690715947 0.5 L 139.10279690715947 3.5 L 146.10279690715947 0 L 139.10279690715947 -3.5 L 139.10279690715947 -0.5 L 99.44306486593325 -0.5 Z"/><text text-anchor="middle" pointer-events="none" font-size="8px" fill="#000000" x="82.05139845357974" y="3" transform="rotate(180 82.05139845357974 0)" font-family="sans-serif">ORIGIN</text></g><g class="relationship" transform="translate(230.98159222850737 64.51741879934718) rotate(300.725709492604)"><path class="outline" fill="#A5ABB6" stroke="none" d="M 25 0.5 L 37.24034643783507 0.5 L 37.24034643783507 -0.5 L 25 -0.5 Z M 97.1570143760675 0.5 L 109.39736081390257 0.5 L 109.39736081390257 3.5 L 116.39736081390257 0 L 109.39736081390257 -3.5 L 109.39736081390257 -0.5 L 97.1570143760675 -0.5 Z"/><text text-anchor="middle" pointer-events="none" font-size="8px" fill="#000000" x="67.19868040695128" y="3" font-family="sans-serif">DESTINATION</text></g><g class="relationship" transform="translate(172.43934851490275 39.60483517282154) rotate(499.4736193297081)"><path class="outline" fill="#A5ABB6" stroke="none" d="M 25 0.5 L 45.62200123502224 0.5 L 45.62200123502224 -0.5 L 25 -0.5 Z M 80.40533405972927 0.5 L 101.02733529475151 0.5 L 101.02733529475151 3.5 L 108.02733529475151 0 L 101.02733529475151 -3.5 L 101.02733529475151 -0.5 L 80.40533405972927 -0.5 Z"/><text text-anchor="middle" pointer-events="none" font-size="8px" fill="#000000" x="63.013667647375755" y="3" transform="rotate(180 63.013667647375755 0)" font-family="sans-serif">ORIGIN</text></g><g class="relationship" transform="translate(172.43934851490275 39.60483517282154) rotate(323.53989405051027)"><path class="outline" fill="#A5ABB6" stroke="none" d="M 25 0.5 L 47.84898680656252 0.5 L 47.84898680656252 -0.5 L 25 -0.5 Z M 107.76565474479494 0.5 L 130.61464155135747 0.5 L 130.61464155135747 3.5 L 137.61464155135747 0 L 130.61464155135747 -3.5 L 130.61464155135747 -0.5 L 107.76565474479494 -0.5 Z"/><text text-anchor="middle" pointer-events="none" font-size="8px" fill="#000000" x="77.80732077567873" y="3" font-family="sans-serif">DESTINATION</text></g></g><g class="layer nodes"><g class="node" transform="translate(71.3243583987382,126.04574394540555)"><circle class="outline" cx="0" cy="0" r="25" fill="#FFC454" stroke="#d7a013" stroke-width="2px"/><text text-anchor="middle" pointer-events="none" font-family="sans-serif" dy="1.5625" font-size="25" fill="#2A2C34"/><text text-anchor="middle" pointer-events="none" x="0" y="5" font-size="10px" fill="#2A2C34" font-family="sans-serif"> LAX</text></g><g class="node" transform="translate(392.9221123430773,119.16967887793601)"><circle class="outline" cx="0" cy="0" r="25" fill="#FFC454" stroke="#d7a013" stroke-width="2px"/><text text-anchor="middle" pointer-events="none" font-family="sans-serif" dy="1.5625" font-size="25" fill="#2A2C34"/><text text-anchor="middle" pointer-events="none" x="0" y="5" font-size="10px" fill="#2A2C34" font-family="sans-serif"> LAS</text></g><g class="node" transform="translate(87.98825594793776,401.7336428017423)"><circle class="outline" cx="0" cy="0" r="25" fill="#FFC454" stroke="#d7a013" stroke-width="2px"/><text text-anchor="middle" pointer-events="none" font-family="sans-serif" dy="1.5625" font-size="25" fill="#2A2C34"/><text text-anchor="middle" pointer-events="none" x="0" y="5" font-size="10px" fill="#2A2C34" font-family="sans-serif"> ABQ</text></g><g class="node" transform="translate(361.2293341813561,267.9755804513536)"><circle class="outline" cx="0" cy="0" r="25" fill="#FFC454" stroke="#d7a013" stroke-width="2px"/><text text-anchor="middle" pointer-events="none" font-family="sans-serif" dy="1.5625" font-size="25" fill="#2A2C34"/><text text-anchor="middle" pointer-events="none" x="0" y="5" font-size="10px" fill="#2A2C34" font-family="sans-serif"> IAH</text></g><g class="node" transform="translate(138.5271094257534,-189.38484726764977)"><circle class="outline" cx="0" cy="0" r="25" fill="#FFC454" stroke="#d7a013" stroke-width="2px"/><text text-anchor="middle" pointer-events="none" font-family="sans-serif" dy="1.5625" font-size="25" fill="#2A2C34"/><text text-anchor="middle" pointer-events="none" x="0" y="5" font-size="10px" fill="#2A2C34" font-family="sans-serif"> EWR</text></g><g class="node" transform="translate(303.2255613174335,-57.03101835808908)"><circle class="outline" cx="0" cy="0" r="25" fill="#FFC454" stroke="#d7a013" stroke-width="2px"/><text text-anchor="middle" pointer-events="none" font-family="sans-serif" dy="1.5625" font-size="25" fill="#2A2C34"/><text text-anchor="middle" pointer-events="none" x="0" y="5" font-size="10px" fill="#2A2C34" font-family="sans-serif"> FAT</text></g><g class="node" transform="translate(-165.56657767703615,-40.918784669288186)"><circle class="outline" cx="0" cy="0" r="25" fill="#FFC454" stroke="#d7a013" stroke-width="2px"/><text text-anchor="middle" pointer-events="none" font-family="sans-serif" dy="1.5625" font-size="25" fill="#2A2C34"/><text text-anchor="middle" pointer-events="none" x="0" y="5" font-size="10px" fill="#2A2C34" font-family="sans-serif"> SMF</text></g><g class="node" transform="translate(-1.8290937706649313,-183.83662129568685)"><circle class="outline" cx="0" cy="0" r="25" fill="#FFC454" stroke="#d7a013" stroke-width="2px"/><text text-anchor="middle" pointer-events="none" font-family="sans-serif" dy="1.5625" font-size="25" fill="#2A2C34"/><text text-anchor="middle" pointer-events="none" x="0" y="5" font-size="10px" fill="#2A2C34" font-family="sans-serif"> BOS</text></g><g class="node" transform="translate(-205.83923595633948,232.8082163121939)"><circle class="outline" cx="0" cy="0" r="25" fill="#FFC454" stroke="#d7a013" stroke-width="2px"/><text text-anchor="middle" pointer-events="none" font-family="sans-serif" dy="1.5625" font-size="25" fill="#2A2C34"/><text text-anchor="middle" pointer-events="none" x="0" y="5" font-size="10px" fill="#2A2C34" font-family="sans-serif"> TUS</text></g><g class="node" transform="translate(236.76346412973407,132.0582644115229)"><circle class="outline" cx="0" cy="0" r="25" fill="#ECB5C9" stroke="#da7298" stroke-width="2px"/><text text-anchor="middle" pointer-events="none" font-family="sans-serif" dy="1.5625" font-size="25" fill="#2A2C34"/><text text-anchor="middle" pointer-events="none" x="0" y="5" font-size="10px" fill="#2A2C34" font-family="sans-serif"> 11/29/2…</text></g><g class="node" transform="translate(171.81108271471666,296.64101791330364)"><circle class="outline" cx="0" cy="0" r="25" fill="#ECB5C9" stroke="#da7298" stroke-width="2px"/><text text-anchor="middle" pointer-events="none" font-family="sans-serif" dy="1.5625" font-size="25" fill="#2A2C34"/><text text-anchor="middle" pointer-events="none" x="0" y="5" font-size="10px" fill="#2A2C34" font-family="sans-serif"> 11/3/20…</text></g><g class="node" transform="translate(78.84986722727795,250.45501713553787)"><circle class="outline" cx="0" cy="0" r="25" fill="#ECB5C9" stroke="#da7298" stroke-width="2px"/><text text-anchor="middle" pointer-events="none" font-family="sans-serif" dy="1.5625" font-size="25" fill="#2A2C34"/><text text-anchor="middle" pointer-events="none" x="0" y="5" font-size="10px" fill="#2A2C34" font-family="sans-serif"> 11/1/20…</text></g><g class="node" transform="translate(223.59988358522324,196.5269556871999)"><circle class="outline" cx="0" cy="0" r="25" fill="#ECB5C9" stroke="#da7298" stroke-width="2px"/><text text-anchor="middle" pointer-events="none" font-family="sans-serif" dy="1.5625" font-size="25" fill="#2A2C34"/><text text-anchor="middle" pointer-events="none" x="0" y="5" font-size="10px" fill="#2A2C34" font-family="sans-serif"> 11/30/2…</text></g><g class="node" transform="translate(111.95024305433068,300.36072512341354)"><circle class="outline" cx="0" cy="0" r="25" fill="#ECB5C9" stroke="#da7298" stroke-width="2px"/><text text-anchor="middle" pointer-events="none" font-family="sans-serif" dy="1.5625" font-size="25" fill="#2A2C34"/><text text-anchor="middle" pointer-events="none" x="0" y="5" font-size="10px" fill="#2A2C34" font-family="sans-serif"> 11/4/20…</text></g><g class="node" transform="translate(100.09350331545924,-35.328768545595864)"><circle class="outline" cx="0" cy="0" r="25" fill="#ECB5C9" stroke="#da7298" stroke-width="2px"/><text text-anchor="middle" pointer-events="none" font-family="sans-serif" dy="1.5625" font-size="25" fill="#2A2C34"/><text text-anchor="middle" pointer-events="none" x="0" y="5" font-size="10px" fill="#2A2C34" font-family="sans-serif"> 11/29/2…</text></g><g class="node" transform="translate(221.50855768141037,5.354449541767734)"><circle class="outline" cx="0" cy="0" r="25" fill="#ECB5C9" stroke="#da7298" stroke-width="2px"/><text text-anchor="middle" pointer-events="none" font-family="sans-serif" dy="1.5625" font-size="25" fill="#2A2C34"/><text text-anchor="middle" pointer-events="none" x="0" y="5" font-size="10px" fill="#2A2C34" font-family="sans-serif"> 11/2/20…</text></g><g class="node" transform="translate(-39.71411956849101,58.93037323186973)"><circle class="outline" cx="0" cy="0" r="25" fill="#ECB5C9" stroke="#da7298" stroke-width="2px"/><text text-anchor="middle" pointer-events="none" font-family="sans-serif" dy="1.5625" font-size="25" fill="#2A2C34"/><text text-anchor="middle" pointer-events="none" x="0" y="5" font-size="10px" fill="#2A2C34" font-family="sans-serif"> 11/3/20…</text></g><g class="node" transform="translate(40.13321492724205,-33.3758964439575)"><circle class="outline" cx="0" cy="0" r="25" fill="#ECB5C9" stroke="#da7298" stroke-width="2px"/><text text-anchor="middle" pointer-events="none" font-family="sans-serif" dy="1.5625" font-size="25" fill="#2A2C34"/><text text-anchor="middle" pointer-events="none" x="0" y="5" font-size="10px" fill="#2A2C34" font-family="sans-serif"> 11/29/2…</text></g><g class="node" transform="translate(138.71063829845377,246.781462165961)"><circle class="outline" cx="0" cy="0" r="25" fill="#ECB5C9" stroke="#da7298" stroke-width="2px"/><text text-anchor="middle" pointer-events="none" font-family="sans-serif" dy="1.5625" font-size="25" fill="#2A2C34"/><text text-anchor="middle" pointer-events="none" x="0" y="5" font-size="10px" fill="#2A2C34" font-family="sans-serif"> 11/2/20…</text></g><g class="node" transform="translate(167.27987053239048,-20.115071044048733)"><circle class="outline" cx="0" cy="0" r="25" fill="#ECB5C9" stroke="#da7298" stroke-width="2px"/><text text-anchor="middle" pointer-events="none" font-family="sans-serif" dy="1.5625" font-size="25" fill="#2A2C34"/><text text-anchor="middle" pointer-events="none" x="0" y="5" font-size="10px" fill="#2A2C34" font-family="sans-serif"> 11/3/20…</text></g><g class="node" transform="translate(-25.86927977455816,-10.349550222582533)"><circle class="outline" cx="0" cy="0" r="25" fill="#ECB5C9" stroke="#da7298" stroke-width="2px"/><text text-anchor="middle" pointer-events="none" font-family="sans-serif" dy="1.5625" font-size="25" fill="#2A2C34"/><text text-anchor="middle" pointer-events="none" x="0" y="5" font-size="10px" fill="#2A2C34" font-family="sans-serif"> 11/1/20…</text></g><g class="node" transform="translate(19.007570491814942,254.19477291930508)"><circle class="outline" cx="0" cy="0" r="25" fill="#ECB5C9" stroke="#da7298" stroke-width="2px"/><text text-anchor="middle" pointer-events="none" font-family="sans-serif" dy="1.5625" font-size="25" fill="#2A2C34"/><text text-anchor="middle" pointer-events="none" x="0" y="5" font-size="10px" fill="#2A2C34" font-family="sans-serif"> 11/2/20…</text></g><g class="node" transform="translate(-70.88207126276566,212.93591199225645)"><circle class="outline" cx="0" cy="0" r="25" fill="#ECB5C9" stroke="#da7298" stroke-width="2px"/><text text-anchor="middle" pointer-events="none" font-family="sans-serif" dy="1.5625" font-size="25" fill="#2A2C34"/><text text-anchor="middle" pointer-events="none" x="0" y="5" font-size="10px" fill="#2A2C34" font-family="sans-serif"> 11/2/20…</text></g><g class="node" transform="translate(-91.3838693333761,156.61108986769923)"><circle class="outline" cx="0" cy="0" r="25" fill="#ECB5C9" stroke="#da7298" stroke-width="2px"/><text text-anchor="middle" pointer-events="none" font-family="sans-serif" dy="1.5625" font-size="25" fill="#2A2C34"/><text text-anchor="middle" pointer-events="none" x="0" y="5" font-size="10px" fill="#2A2C34" font-family="sans-serif"> 11/1/20…</text></g><g class="node" transform="translate(-7.678189016482713,307.79386165980026)"><circle class="outline" cx="0" cy="0" r="25" fill="#ECB5C9" stroke="#da7298" stroke-width="2px"/><text text-anchor="middle" pointer-events="none" font-family="sans-serif" dy="1.5625" font-size="25" fill="#2A2C34"/><text text-anchor="middle" pointer-events="none" x="0" y="5" font-size="10px" fill="#2A2C34" font-family="sans-serif"> 11/3/20…</text></g><g class="node" transform="translate(-80.1894727281698,14.900564060371147)"><circle class="outline" cx="0" cy="0" r="25" fill="#ECB5C9" stroke="#da7298" stroke-width="2px"/><text text-anchor="middle" pointer-events="none" font-family="sans-serif" dy="1.5625" font-size="25" fill="#2A2C34"/><text text-anchor="middle" pointer-events="none" x="0" y="5" font-size="10px" fill="#2A2C34" font-family="sans-serif"> 11/4/20…</text></g><g class="node" transform="translate(-97.665978519359,74.15837193355686)"><circle class="outline" cx="0" cy="0" r="25" fill="#ECB5C9" stroke="#da7298" stroke-width="2px"/><text text-anchor="middle" pointer-events="none" font-family="sans-serif" dy="1.5625" font-size="25" fill="#2A2C34"/><text text-anchor="middle" pointer-events="none" x="0" y="5" font-size="10px" fill="#2A2C34" font-family="sans-serif"> 11/2/20…</text></g><g class="node" transform="translate(52.13138258342138,304.05864845358053)"><circle class="outline" cx="0" cy="0" r="25" fill="#ECB5C9" stroke="#da7298" stroke-width="2px"/><text text-anchor="middle" pointer-events="none" font-family="sans-serif" dy="1.5625" font-size="25" fill="#2A2C34"/><text text-anchor="middle" pointer-events="none" x="0" y="5" font-size="10px" fill="#2A2C34" font-family="sans-serif"> 11/1/20…</text></g><g class="node" transform="translate(230.98159222850737,64.51741879934718)"><circle class="outline" cx="0" cy="0" r="25" fill="#ECB5C9" stroke="#da7298" stroke-width="2px"/><text text-anchor="middle" pointer-events="none" font-family="sans-serif" dy="1.5625" font-size="25" fill="#2A2C34"/><text text-anchor="middle" pointer-events="none" x="0" y="5" font-size="10px" fill="#2A2C34" font-family="sans-serif"> 11/1/20…</text></g><g class="node" transform="translate(172.43934851490275,39.60483517282154)"><circle class="outline" cx="0" cy="0" r="25" fill="#ECB5C9" stroke="#da7298" stroke-width="2px"/><text text-anchor="middle" pointer-events="none" font-family="sans-serif" dy="1.5625" font-size="25" fill="#2A2C34"/><text text-anchor="middle" pointer-events="none" x="0" y="5" font-size="10px" fill="#2A2C34" font-family="sans-serif"> 11/4/20…</text></g></g></svg>