<svg xmlns="http://www.w3.org/2000/svg" width="385.6090087890625" height="349.593505859375" viewBox="-78.10630798339844 -81.82917785644531 385.6090087890625 349.593505859375"><title>Neo4j Graph Visualization</title><desc>Created using Neo4j (http://www.neo4j.com/)</desc><g class="layer relationships"><g class="relationship" transform="translate(31.893719695038993 -4.228218479714656) rotate(378.53512241237127)"><path class="outline" fill="#A5ABB6" stroke="none" d="M 24.018736134675446,-6.953439040707552 L 24.277555179777966,-5.987513214418485 A 142.61583466525596 142.61583466525596 0 0 1 48.39195223734762,-10.271701765585192 L 48.302219585170334,-11.267667654124153 A 143.61583466525596 143.61583466525596 0 0 0 24.018736134675446,-6.953439040707552 Z M 70.15519023188786,-11.56688472394211 L 70.09276020160291,-10.568835380813908 A 142.61583466525596 142.61583466525596 0 0 1 94.31541574345115,-6.946491458290696 L 93.61858919897524,-4.028541361576607 L 101.24010372653001,-5.806887870632588 L 95.24451780275236,-10.837091587242814 L 94.54769125827644,-7.919141490528725 A 143.61583466525596 143.61583466525596 0 0 0 70.15519023188786,-11.56688472394211"/><text text-anchor="middle" pointer-events="none" font-size="8px" fill="#000000" x="59.22985040420705" y="-8.333616244627507" font-family="sans-serif">trek</text></g><g class="relationship" transform="translate(150.93733663623289 35.68437889309867) rotate(375.3151717310857)"><path class="outline" fill="#A5ABB6" stroke="none" d="M 21.40063509461097,-12.933012701892217 L 21.90063509461097,-12.06698729810778 A 85.44431945801945 85.44431945801945 0 0 1 51.67476172393961,-22.527600332499446 L 51.52322405377252,-23.516051815638775 A 86.44431945801945 86.44431945801945 0 0 0 21.40063509461097,-12.933012701892217 Z M 73.38431898716576,-24.06919917903761 L 73.28296444798403,-23.074348809691912 A 85.44431945801945 85.44431945801945 0 0 1 103.5480180591188,-14.132896382389076 L 102.18133071878756,-11.462284895523513 L 110.00722608519366,-11.389061169427084 L 105.37026784622714,-17.693711698209825 L 104.0035805058959,-15.023100211344262 A 86.44431945801945 86.44431945801945 0 0 0 73.38431898716576,-24.06919917903761"/><text text-anchor="middle" pointer-events="none" font-size="8px" fill="#000000" x="62.44885692782597" y="-20.98685651684646" font-family="sans-serif">trek</text></g><g class="relationship" transform="translate(278.5026943212836 70.61862124944498) rotate(219.22759352018682)"><path class="outline" fill="#A5ABB6" stroke="none" d="M 21.40063509461097,12.933012701892217 L 21.90063509461097,12.06698729810778 A 45.98349627991265 45.98349627991265 0 0 0 32.65169336443956,16.568455033204692 L 32.385495905342154,17.532373552982214 A 46.98349627991265 46.98349627991265 0 0 1 21.40063509461097,12.933012701892217 Z M 54.205272992717575,18.29537635333341 L 54.00705679989388,17.315218028927355 A 45.98349627991265 45.98349627991265 0 0 0 65.04628842841613,13.575721974216046 L 63.73143156730445,10.879214708364987 L 71.55728152558721,10.957140509263972 L 66.79943090989836,17.17106499535079 L 65.48457404878668,14.47455772949973 A 46.98349627991265 46.98349627991265 0 0 1 54.205272992717575,18.29537635333341"/><text text-anchor="middle" pointer-events="none" font-size="8px" fill="#000000" x="43.26792239804607" y="21.699213919872903" transform="rotate(180 43.26792239804607 18.699213919872903)" font-family="sans-serif">trek</text></g><g class="relationship" transform="translate(205.66470711885833 11.154973608246275) rotate(467.1562921790671)"><path class="outline" fill="#A5ABB6" stroke="none" d="M 25 0.5 L 59.92117185394294 0.5 L 59.92117185394294 -0.5 L 25 -0.5 Z M 81.7211720446778 0.5 L 116.64234389862074 0.5 L 116.64234389862074 3.5 L 123.64234389862074 0 L 116.64234389862074 -3.5 L 116.64234389862074 -0.5 L 81.7211720446778 -0.5 Z"/><text text-anchor="middle" pointer-events="none" font-size="8px" fill="#000000" x="70.82117194931037" y="3" transform="rotate(180 70.82117194931037 0)" font-family="sans-serif">trek</text></g><g class="relationship" transform="translate(31.893719695038993 -4.228218479714656) rotate(378.53512241237127)"><path class="outline" fill="#A5ABB6" stroke="none" d="M 24.018736134675446,6.953439040707552 L 24.277555179777966,5.987513214418485 A 142.61583466525596 142.61583466525596 0 0 0 47.30060614505771,10.169146110826887 L 47.20322114421345,11.16439289510231 A 143.61583466525596 143.61583466525596 0 0 1 24.018736134675446,6.953439040707552 Z M 71.2566042770927,11.49373863653858 L 71.18650507823891,10.496198611116 A 142.61583466525596 142.61583466525596 0 0 0 94.31541574345115,6.946491458290696 L 93.61858919897524,4.028541361576607 L 101.24010372653001,5.806887870632588 L 95.24451780275236,10.837091587242814 L 94.54769125827644,7.919141490528725 A 143.61583466525596 143.61583466525596 0 0 1 71.2566042770927,11.49373863653858"/><text text-anchor="middle" pointer-events="none" font-size="8px" fill="#000000" x="59.229850404207106" y="14.333616244627507" font-family="sans-serif">road</text></g><g class="relationship" transform="translate(150.93733663623289 35.68437889309867) rotate(375.3151717310857)"><path class="outline" fill="#A5ABB6" stroke="none" d="M 25 0.5 L 50.63116090453667 0.5 L 50.63116090453667 -0.5 L 25 -0.5 Z M 74.63116090453667 0.5 L 100.26232180907334 0.5 L 100.26232180907334 3.5 L 107.26232180907334 0 L 100.26232180907334 -3.5 L 100.26232180907334 -0.5 L 74.63116090453667 -0.5 Z"/><text text-anchor="middle" pointer-events="none" font-size="8px" fill="#000000" x="62.63116090453667" y="3" font-family="sans-serif">road</text></g><g class="relationship" transform="translate(150.93733663623289 35.68437889309867) rotate(375.3151717310857)"><path class="outline" fill="#A5ABB6" stroke="none" d="M 21.40063509461097,12.933012701892217 L 21.90063509461097,12.06698729810778 A 85.44431945801945 85.44431945801945 0 0 0 36.89984915045909,18.891877212957397 L 36.57539287473461,19.837777908137923 A 86.44431945801945 86.44431945801945 0 0 1 21.40063509461097,12.933012701892217 Z M 88.49904454307121,21.151592751625373 L 88.22284074079539,20.19049366224469 A 85.44431945801945 85.44431945801945 0 0 0 103.5480180591188,14.132896382389076 L 102.18133071878756,11.462284895523513 L 110.00722608519366,11.389061169427084 L 105.37026784622714,17.693711698209825 L 104.0035805058959,15.023100211344262 A 86.44431945801945 86.44431945801945 0 0 1 88.49904454307121,21.151592751625373"/><text text-anchor="middle" pointer-events="none" font-size="8px" fill="#000000" x="62.44885692782596" y="26.98685651684646" font-family="sans-serif">twowheeler</text></g><g class="relationship" transform="translate(278.5026943212836 70.61862124944498) rotate(219.22759352018682)"><path class="outline" fill="#A5ABB6" stroke="none" d="M 25 0.5 L 31.514087703839657 0.5 L 31.514087703839657 -0.5 L 25 -0.5 Z M 55.51408770383966 0.5 L 62.02817540767931 0.5 L 62.02817540767931 3.5 L 69.02817540767931 0 L 62.02817540767931 -3.5 L 62.02817540767931 -0.5 L 55.51408770383966 -0.5 Z"/><text text-anchor="middle" pointer-events="none" font-size="8px" fill="#000000" x="43.51408770383966" y="3" transform="rotate(180 43.51408770383966 0)" font-family="sans-serif">road</text></g><g class="relationship" transform="translate(278.5026943212836 70.61862124944498) rotate(219.22759352018682)"><path class="outline" fill="#A5ABB6" stroke="none" d="M 21.40063509461097,-12.933012701892217 L 21.90063509461097,-12.06698729810778 A 45.98349627991265 45.98349627991265 0 0 1 22.034048523462552,-12.143716179458558 L 21.536949856324227,-13.011410201063697 A 46.98349627991265 46.98349627991265 0 0 0 21.40063509461097,-12.933012701892217 Z M 65.34311607362493,-14.543241959133745 L 64.90784125462851,-13.642944323933229 A 45.98349627991265 45.98349627991265 0 0 1 65.04628842841613,-13.575721974216046 L 63.73143156730445,-10.879214708364987 L 71.55728152558721,-10.957140509263972 L 66.79943090989836,-17.17106499535079 L 65.48457404878668,-14.47455772949973 A 46.98349627991265 46.98349627991265 0 0 0 65.34311607362493,-14.543241959133745"/><text text-anchor="middle" pointer-events="none" font-size="8px" fill="#000000" x="43.26792239804605" y="-15.699213919872903" transform="rotate(180 43.26792239804605 -18.699213919872903)" font-family="sans-serif">twowhe…</text></g><g class="relationship" transform="translate(31.893719695038993 -4.228218479714656) rotate(323.63669181706365)"><path class="outline" fill="#A5ABB6" stroke="none" d="M 21.40063509461097,12.933012701892217 L 21.90063509461097,12.06698729810778 A 33.30229827734717 33.30229827734717 0 0 0 22.61431341749543,12.467419614234231 L 22.135743719901015,13.345469182621112 A 34.30229827734717 34.30229827734717 0 0 1 21.40063509461097,12.933012701892217 Z M 52.52485718053484,14.553669726816953 L 52.11750625511659,13.640398012834254 A 33.30229827734717 33.30229827734717 0 0 0 52.8607222217827,13.297888428667424 L 51.5717176729677,10.588927876511995 L 59.3964642682812,10.741704573458332 L 54.57939495353603,16.90983583154133 L 53.29039040472103,14.200875279385901 A 34.30229827734717 34.30229827734717 0 0 1 52.52485718053484,14.553669726816953"/><text text-anchor="middle" pointer-events="none" font-size="8px" fill="#000000" x="37.20894426735097" y="20.001965704670994" font-family="sans-serif">Publ…</text></g><g class="relationship" transform="translate(97.90291549771418 -52.829176603863054) rotate(390.6999530813074)"><path class="outline" fill="#A5ABB6" stroke="none" d="M 25 0.5 L 48.26293793774084 0.5 L 48.26293793774084 -0.5 L 25 -0.5 Z M 70.06293812847571 0.5 L 93.32587606621654 0.5 L 93.32587606621654 3.5 L 100.32587606621654 0 L 93.32587606621654 -3.5 L 93.32587606621654 -0.5 L 70.06293812847571 -0.5 Z"/><text text-anchor="middle" pointer-events="none" font-size="8px" fill="#000000" x="59.16293803310827" y="3" font-family="sans-serif">trek</text></g><g class="relationship" transform="translate(31.893719695038993 -4.228218479714656) rotate(323.63669181706365)"><path class="outline" fill="#A5ABB6" stroke="none" d="M 25 0.5 L 25.485567768121555 0.5 L 25.485567768121555 -0.5 L 25 -0.5 Z M 49.485567768121555 0.5 L 49.97113553624311 0.5 L 49.97113553624311 3.5 L 56.97113553624311 0 L 49.97113553624311 -3.5 L 49.97113553624311 -0.5 L 49.485567768121555 -0.5 Z"/><text text-anchor="middle" pointer-events="none" font-size="8px" fill="#000000" x="37.485567768121555" y="3" font-family="sans-serif">road</text></g><g class="relationship" transform="translate(31.893719695038993 -4.228218479714656) rotate(323.63669181706365)"><path class="outline" fill="#A5ABB6" stroke="none" d="M 21.40063509461097,-12.933012701892217 L 21.90063509461097,-12.06698729810778 A 33.30229827734717 33.30229827734717 0 0 1 26.75170155569753,-14.36798099031278 L 26.397369173610443,-15.30310053507938 A 34.30229827734717 34.30229827734717 0 0 0 21.40063509461097,-12.933012701892217 Z M 48.121266849816294,-16.166792232714684 L 47.84229188029213,-15.206493859093758 A 33.30229827734717 33.30229827734717 0 0 1 52.8607222217827,-13.297888428667424 L 51.5717176729677,-10.588927876511995 L 59.3964642682812,-10.741704573458332 L 54.57939495353603,-16.90983583154133 L 53.29039040472103,-14.200875279385901 A 34.30229827734717 34.30229827734717 0 0 0 48.121266849816294,-16.166792232714684"/><text text-anchor="middle" pointer-events="none" font-size="8px" fill="#000000" x="37.20894426735097" y="-14.001965704670994" font-family="sans-serif">trek</text></g><g class="relationship" transform="translate(97.90291549771418 -52.829176603863054) rotate(495.0019427313308)"><path class="outline" fill="#A5ABB6" stroke="none" d="M 24.018736134675446,-6.953439040707552 L 24.277555179777966,-5.987513214418485 A 190.45168129012802 190.45168129012802 0 0 1 60.50512559639458,-12.028341726723937 L 60.43652577210025,-13.025985984015477 A 191.45168129012802 191.45168129012802 0 0 0 24.018736134675446,-6.953439040707552 Z M 82.28027805216811,-13.278756544568381 L 82.2347824967151,-12.2797920034389 A 190.45168129012802 190.45168129012802 0 0 1 118.592439331451,-7.078901993683047 L 117.88324587791452,-4.163932929445661 L 125.51223272359432,-5.90994544613746 L 119.53803060283299,-10.965527412666228 L 118.8288371492965,-8.050558348428842 A 191.45168129012802 191.45168129012802 0 0 0 82.28027805216811,-13.278756544568381"/><text text-anchor="middle" pointer-events="none" font-size="8px" fill="#000000" x="71.36057922861713" y="-9.964213427458333" transform="rotate(180 71.36057922861713 -12.964213427458333)" font-family="sans-serif">trek</text></g><g class="relationship" transform="translate(-8.02784693645138 53.09440247281117) rotate(420.88489952689326)"><path class="outline" fill="#A5ABB6" stroke="none" d="M 24.018736134675446,-6.953439040707552 L 24.277555179777966,-5.987513214418485 A 118.48306973737121 118.48306973737121 0 0 1 42.32677967900034,-9.351091248740389 L 42.22029652913779,-10.345405755722638 A 119.48306973737121 119.48306973737121 0 0 0 24.018736134675446,-6.953439040707552 Z M 64.07881474727179,-10.674964063382944 L 64.00235550817347,-9.677891355524338 A 118.48306973737121 118.48306973737121 0 0 1 82.14477773862424,-6.859970521230558 L 81.45603256223156,-3.940102359481504 L 89.07259431210416,-5.739543136605782 L 83.06310464048117,-10.753128070229296 L 82.37435946408849,-7.833259908480242 A 119.48306973737121 119.48306973737121 0 0 0 64.07881474727179,-10.674964063382944"/><text text-anchor="middle" pointer-events="none" font-size="8px" fill="#000000" x="53.149540257561306" y="-7.511205057028789" font-family="sans-serif">trek</text></g><g class="relationship" transform="translate(47.15104725959223 152.16985288466617) rotate(360.5063647643633)"><path class="outline" fill="#A5ABB6" stroke="none" d="M 24.018736134675446,6.953439040707552 L 24.277555179777966,5.987513214418485 A 121.00563440655688 121.00563440655688 0 0 0 42.95883711981696,9.44898081713022 L 42.85440164562547,10.443512481648952 A 122.00563440655688 122.00563440655688 0 0 1 24.018736134675446,6.953439040707552 Z M 64.71232931984183,10.76962371971598 L 64.63760972647816,9.77241913570748 A 121.00563440655688 121.00563440655688 0 0 0 83.41384117589945,6.869802136237441 L 82.72417767262333,3.9501507439906 L 90.34130500835477,5.7471958606343065 L 84.33339251360094,10.762670659233228 L 83.64372901032482,7.843019266986387 A 122.00563440655688 122.00563440655688 0 0 1 64.71232931984183,10.76962371971598"/><text text-anchor="middle" pointer-events="none" font-size="8px" fill="#000000" x="53.78350585870722" y="13.597159262472104" font-family="sans-serif">trek</text></g><g class="relationship" transform="translate(97.90291549771418 -52.829176603863054) rotate(495.0019427313308)"><path class="outline" fill="#A5ABB6" stroke="none" d="M 24.018736134675446,6.953439040707552 L 24.277555179777966,5.987513214418485 A 190.45168129012802 190.45168129012802 0 0 0 45.31467806948477,10.369350041016673 L 45.16631813268311,11.358283471108024 A 191.45168129012802 191.45168129012802 0 0 1 24.018736134675446,6.953439040707552 Z M 97.58498803262687,11.964859502742343 L 97.45955215031265,10.972757774375708 A 190.45168129012802 190.45168129012802 0 0 0 118.592439331451,7.078901993683047 L 117.88324587791452,4.163932929445661 L 125.51223272359432,5.90994544613746 L 119.53803060283299,10.965527412666228 L 118.8288371492965,8.050558348428842 A 191.45168129012802 191.45168129012802 0 0 1 97.58498803262687,11.964859502742343"/><text text-anchor="middle" pointer-events="none" font-size="8px" fill="#000000" x="71.36057922861715" y="15.964213427458333" transform="rotate(180 71.36057922861715 12.964213427458333)" font-family="sans-serif">twowheeler</text></g><g class="relationship" transform="translate(-8.02784693645138 53.09440247281117) rotate(420.88489952689326)"><path class="outline" fill="#A5ABB6" stroke="none" d="M 24.018736134675446,6.953439040707552 L 24.277555179777966,5.987513214418485 A 118.48306973737121 118.48306973737121 0 0 0 27.299367770509242,6.754740013656999 L 27.06605289741568,7.727141252854764 A 119.48306973737121 119.48306973737121 0 0 1 24.018736134675446,6.953439040707552 Z M 79.30510303970368,8.514743266260794 L 79.10120910775808,7.535750281344264 A 118.48306973737121 118.48306973737121 0 0 0 82.14477773862424,6.859970521230558 L 81.45603256223156,3.940102359481504 L 89.07259431210416,5.739543136605782 L 83.06310464048117,10.753128070229296 L 82.37435946408849,7.833259908480242 A 119.48306973737121 119.48306973737121 0 0 1 79.30510303970368,8.514743266260794"/><text text-anchor="middle" pointer-events="none" font-size="8px" fill="#000000" x="53.1495402575613" y="13.51120505702879" font-family="sans-serif">twowheeler</text></g><g class="relationship" transform="translate(47.15104725959223 152.16985288466617) rotate(360.5063647643633)"><path class="outline" fill="#A5ABB6" stroke="none" d="M 24.018736134675446,-6.953439040707552 L 24.277555179777966,-5.987513214418485 A 121.00563440655688 121.00563440655688 0 0 1 27.92094970659262,-6.9033846059744235 L 27.692239958009083,-7.876879264872386 A 122.00563440655688 122.00563440655688 0 0 0 24.018736134675446,-6.953439040707552 Z M 79.94431166319521,-8.656458557535416 L 79.74474552141234,-7.676574199534997 A 121.00563440655688 121.00563440655688 0 0 1 83.41384117589945,-6.869802136237441 L 82.72417767262333,-3.9501507439906 L 90.34130500835477,-5.7471958606343065 L 84.33339251360094,-10.762670659233228 L 83.64372901032482,-7.843019266986387 A 122.00563440655688 122.00563440655688 0 0 0 79.94431166319521,-8.656458557535416"/><text text-anchor="middle" pointer-events="none" font-size="8px" fill="#000000" x="53.783505858707215" y="-7.597159262472104" font-family="sans-serif">twowheeler</text></g><g class="relationship" transform="translate(97.90291549771418 -52.829176603863054) rotate(419.0713406791255)"><path class="outline" fill="#A5ABB6" stroke="none" d="M 25 0.5 L 37.192875702099705 0.5 L 37.192875702099705 -0.5 L 25 -0.5 Z M 58.99287589283457 0.5 L 71.18575159493427 0.5 L 71.18575159493427 3.5 L 78.18575159493427 0 L 71.18575159493427 -3.5 L 71.18575159493427 -0.5 L 58.99287589283457 -0.5 Z"/><text text-anchor="middle" pointer-events="none" font-size="8px" fill="#000000" x="48.09287579746714" y="3" font-family="sans-serif">trek</text></g><g class="relationship" transform="translate(-8.02784693645138 53.09440247281117) rotate(468.6535324367202)"><path class="outline" fill="#A5ABB6" stroke="none" d="M 24.018736134675446,-6.953439040707552 L 24.277555179777966,-5.987513214418485 A 148.30966434217004 148.30966434217004 0 0 1 49.82824202320917,-10.484643942298845 L 49.74170228948371,-11.4808923422909 A 149.30966434217004 149.30966434217004 0 0 0 24.018736134675446,-6.953439040707552 Z M 71.59343433310573,-11.773727138302661 L 71.5336223076206,-10.775517480160971 A 148.30966434217004 148.30966434217004 0 0 1 97.19564402985277,-6.964687638457462 L 96.49711794326099,-4.047143927328052 L 104.11966703692002,-5.821050721598202 L 98.12701214530848,-10.854745919963342 L 97.4284860587167,-7.937202208833932 A 149.30966434217004 149.30966434217004 0 0 0 71.59343433310573,-11.773727138302661"/><text text-anchor="middle" pointer-events="none" font-size="8px" fill="#000000" x="60.66890341904706" y="-8.527682178098814" transform="rotate(180 60.66890341904706 -11.527682178098814)" font-family="sans-serif">trek</text></g><g class="relationship" transform="translate(-49.10630962633351 174.78037125401127) rotate(346.7810674933014)"><path class="outline" fill="#A5ABB6" stroke="none" d="M 21.40063509461097,12.933012701892217 L 21.90063509461097,12.06698729810778 A 51.04069302932845 51.04069302932845 0 0 0 35.049474022557334,17.383115119846856 L 34.80708884217569,18.35329521876219 A 52.04069302932845 52.04069302932845 0 0 1 21.40063509461097,12.933012701892217 Z M 56.64271933412431,19.08156956307142 L 56.46551689526263,18.09739513967815 A 51.04069302932845 51.04069302932845 0 0 0 69.93935395042138,13.66920192108699 L 68.61579987985613,10.97695293143351 L 76.44186060470703,11.029617254710342 L 71.70409271117504,17.258867240624962 L 70.38053864060979,14.566618250971484 A 52.04069302932845 52.04069302932845 0 0 1 56.64271933412431,19.08156956307142"/><text text-anchor="middle" pointer-events="none" font-size="8px" fill="#000000" x="45.702922469128" y="22.376500658706107" font-family="sans-serif">trek</text></g><g class="relationship" transform="translate(-8.02784693645138 53.09440247281117) rotate(468.6535324367202)"><path class="outline" fill="#A5ABB6" stroke="none" d="M 24.018736134675446,6.953439040707552 L 24.277555179777966,5.987513214418485 A 148.30966434217004 148.30966434217004 0 0 0 34.706916055793926,8.382393690009195 L 34.518418529671806,9.364467354581166 A 149.30966434217004 149.30966434217004 0 0 1 24.018736134675446,6.953439040707552 Z M 86.86796546898748,10.066002998011243 L 86.70585242231138,9.079230805406809 A 148.30966434217004 148.30966434217004 0 0 0 97.19564402985277,6.964687638457462 L 96.49711794326099,4.047143927328052 L 104.11966703692002,5.821050721598202 L 98.12701214530848,10.854745919963342 L 97.4284860587167,7.937202208833932 A 149.30966434217004 149.30966434217004 0 0 1 86.86796546898748,10.066002998011243"/><text text-anchor="middle" pointer-events="none" font-size="8px" fill="#000000" x="60.668903419047055" y="14.527682178098814" transform="rotate(180 60.668903419047055 11.527682178098814)" font-family="sans-serif">twowheeler</text></g><g class="relationship" transform="translate(-49.10630962633351 174.78037125401127) rotate(346.7810674933014)"><path class="outline" fill="#A5ABB6" stroke="none" d="M 25 0.5 L 33.93863442590968 0.5 L 33.93863442590968 -0.5 L 25 -0.5 Z M 57.93863442590968 0.5 L 66.87726885181937 0.5 L 66.87726885181937 3.5 L 73.87726885181937 0 L 66.87726885181937 -3.5 L 66.87726885181937 -0.5 L 57.93863442590968 -0.5 Z"/><text text-anchor="middle" pointer-events="none" font-size="8px" fill="#000000" x="45.93863442590968" y="3" font-family="sans-serif">road</text></g><g class="relationship" transform="translate(-49.10630962633351 174.78037125401127) rotate(346.7810674933014)"><path class="outline" fill="#A5ABB6" stroke="none" d="M 21.40063509461097,-12.933012701892217 L 21.90063509461097,-12.06698729810778 A 51.04069302932845 51.04069302932845 0 0 1 22.116716411597388,-12.191039681034106 L 21.620949922236875,-13.059495545213252 A 52.04069302932845 52.04069302932845 0 0 0 21.40063509461097,-12.933012701892217 Z M 70.15228574173918,-14.678140208825397 L 69.71548709803831,-13.778580902908843 A 51.04069302932845 51.04069302932845 0 0 1 69.93935395042138,-13.66920192108699 L 68.61579987985613,-10.97695293143351 L 76.44186060470703,-11.029617254710342 L 71.70409271117504,-17.258867240624962 L 70.38053864060979,-14.566618250971484 A 52.04069302932845 52.04069302932845 0 0 0 70.15228574173918,-14.678140208825397"/><text text-anchor="middle" pointer-events="none" font-size="8px" fill="#000000" x="45.70292246912799" y="-16.376500658706107" font-family="sans-serif">twowhee…</text></g><g class="relationship" transform="translate(-49.10630962633351 174.78037125401127) rotate(389.80636695630074)"><path class="outline" fill="#A5ABB6" stroke="none" d="M 25 0.5 L 49.96106648447639 0.5 L 49.96106648447639 -0.5 L 25 -0.5 Z M 71.76106667521125 0.5 L 96.72213315968764 0.5 L 96.72213315968764 3.5 L 103.72213315968764 0 L 96.72213315968764 -3.5 L 96.72213315968764 -0.5 L 71.76106667521125 -0.5 Z"/><text text-anchor="middle" pointer-events="none" font-size="8px" fill="#000000" x="60.86106657984382" y="3" font-family="sans-serif">trek</text></g><g class="relationship" transform="translate(62.5872011271557 238.7643319061977) rotate(319.2241408906306)"><path class="outline" fill="#A5ABB6" stroke="none" d="M 25 0.5 L 51.11894424344608 0.5 L 51.11894424344608 -0.5 L 25 -0.5 Z M 72.91894443418094 0.5 L 99.03788867762702 0.5 L 99.03788867762702 3.5 L 106.03788867762702 0 L 99.03788867762702 -3.5 L 99.03788867762702 -0.5 L 72.91894443418094 -0.5 Z"/><text text-anchor="middle" pointer-events="none" font-size="8px" fill="#000000" x="62.01894433881351" y="3" font-family="sans-serif">trek</text></g></g><g class="layer nodes"><g class="node" transform="translate(31.893719695038993,-4.228218479714656)"><circle class="outline" cx="0" cy="0" r="25" fill="#F16667" stroke="#eb2728" stroke-width="2px"/><text text-anchor="middle" pointer-events="none" font-family="sans-serif" dy="1.5625" font-size="25" fill="#FFFFFF"/><text text-anchor="middle" pointer-events="none" x="0" y="5" font-size="10px" fill="#FFFFFF" font-family="sans-serif"> Darjeeli…</text></g><g class="node" transform="translate(161.818302318532,153.18327777949855)"><circle class="outline" cx="0" cy="0" r="25" fill="#8DCC93" stroke="#5db665" stroke-width="2px"/><text text-anchor="middle" pointer-events="none" font-family="sans-serif" dy="1.5625" font-size="25" fill="#2A2C34"/><text text-anchor="middle" pointer-events="none" x="0" y="5" font-size="10px" fill="#2A2C34" font-family="sans-serif"> Sandak…</text></g><g class="node" transform="translate(150.93733663623289,35.68437889309867)"><circle class="outline" cx="0" cy="0" r="25" fill="#D9C8AE" stroke="#c0a378" stroke-width="2px"/><text text-anchor="middle" pointer-events="none" font-family="sans-serif" dy="1.5625" font-size="25" fill="#2A2C34"/><text text-anchor="middle" pointer-events="none" x="0" y="5" font-size="10px" fill="#2A2C34" font-family="sans-serif"> Tumbling</text></g><g class="node" transform="translate(278.5026943212836,70.61862124944498)"><circle class="outline" cx="0" cy="0" r="25" fill="#D9C8AE" stroke="#c0a378" stroke-width="2px"/><text text-anchor="middle" pointer-events="none" font-family="sans-serif" dy="1.5625" font-size="25" fill="#2A2C34"/><text text-anchor="middle" pointer-events="none" x="0" y="5" font-size="10px" fill="#2A2C34" font-family="sans-serif"> Gairibus</text></g><g class="node" transform="translate(205.66470711885833,11.154973608246275)"><circle class="outline" cx="0" cy="0" r="25" fill="#D9C8AE" stroke="#c0a378" stroke-width="2px"/><text text-anchor="middle" pointer-events="none" font-family="sans-serif" dy="1.5625" font-size="25" fill="#2A2C34"/><text text-anchor="middle" pointer-events="none" x="0" y="5" font-size="10px" fill="#2A2C34" font-family="sans-serif"> BhikeB…</text></g><g class="node" transform="translate(97.90291549771418,-52.829176603863054)"><circle class="outline" cx="0" cy="0" r="25" fill="#F16667" stroke="#eb2728" stroke-width="2px"/><text text-anchor="middle" pointer-events="none" font-family="sans-serif" dy="1.5625" font-size="25" fill="#FFFFFF"/><text text-anchor="middle" pointer-events="none" x="0" y="5" font-size="10px" fill="#FFFFFF" font-family="sans-serif"> Rimbik</text></g><g class="node" transform="translate(-8.02784693645138,53.09440247281117)"><circle class="outline" cx="0" cy="0" r="25" fill="#D9C8AE" stroke="#c0a378" stroke-width="2px"/><text text-anchor="middle" pointer-events="none" font-family="sans-serif" dy="1.5625" font-size="25" fill="#2A2C34"/><text text-anchor="middle" pointer-events="none" x="0" y="5" font-size="10px" fill="#2A2C34" font-family="sans-serif"> Sirikhola</text></g><g class="node" transform="translate(47.15104725959223,152.16985288466617)"><circle class="outline" cx="0" cy="0" r="25" fill="#D9C8AE" stroke="#c0a378" stroke-width="2px"/><text text-anchor="middle" pointer-events="none" font-family="sans-serif" dy="1.5625" font-size="25" fill="#2A2C34"/><text text-anchor="middle" pointer-events="none" x="0" y="5" font-size="10px" fill="#2A2C34" font-family="sans-serif"> Gurdum</text></g><g class="node" transform="translate(-49.10630962633351,174.78037125401127)"><circle class="outline" cx="0" cy="0" r="25" fill="#D9C8AE" stroke="#c0a378" stroke-width="2px"/><text text-anchor="middle" pointer-events="none" font-family="sans-serif" dy="1.5625" font-size="25" fill="#2A2C34"/><text text-anchor="middle" pointer-events="none" x="0" y="5" font-size="10px" fill="#2A2C34" font-family="sans-serif"> Ramm…</text></g><g class="node" transform="translate(62.5872011271557,238.7643319061977)"><circle class="outline" cx="0" cy="0" r="25" fill="#8DCC93" stroke="#5db665" stroke-width="2px"/><text text-anchor="middle" pointer-events="none" font-family="sans-serif" dy="1.5625" font-size="25" fill="#2A2C34"/><text text-anchor="middle" pointer-events="none" x="0" y="5" font-size="10px" fill="#2A2C34" font-family="sans-serif"> Sabarg…</text></g></g></svg>