<svg xmlns="http://www.w3.org/2000/svg" width="160.89756774902344" height="242.82321166992188" viewBox="0.5520191192626953 -20.92565155029297 160.89756774902344 242.82321166992188"><title>Neo4j Graph Visualization</title><desc>Created using Neo4j (http://www.neo4j.com/)</desc><g class="layer relationships"><g class="relationship" transform="translate(132.44959164896156 8.07434777276674) rotate(520.0005400666182)"><path class="outline" fill="#A5ABB6" stroke="none" d="M 21.40063509461097,12.933012701892217 L 21.90063509461097,12.06698729810778 A 59.96409546257476 59.96409546257476 0 0 0 22.241076373438002,12.262058859907604 L 21.74675379217001,13.13133740309646 A 60.96409546257476 60.96409546257476 0 0 1 21.40063509461097,12.933012701892217 Z M 78.69724371950647,14.886902148489767 L 78.25740186357228,13.98882690566856 A 59.96409546257476 59.96409546257476 0 0 0 78.60921194238378,13.81509479292302 L 77.2720853380227,11.12956087135178 L 85.09831219344352,11.142721703009036 L 80.39204741486522,17.39580668835134 L 79.05492081050414,14.7102727667801 A 60.96409546257476 60.96409546257476 0 0 1 78.69724371950647,14.886902148489767"/><text text-anchor="middle" pointer-events="none" font-size="8px" fill="#000000" x="50.01969206966279" y="23.57194517058469" transform="rotate(180 50.01969206966279 20.57194517058469)" font-family="sans-serif">PublicTrans…</text></g><g class="relationship" transform="translate(31.4531857424184 44.8329551944585) rotate(451.0207205835187)"><path class="outline" fill="#A5ABB6" stroke="none" d="M 25 0.5 L 38.96159819329859 0.5 L 38.96159819329859 -0.5 L 25 -0.5 Z M 60.761598384033455 0.5 L 74.72319657733205 0.5 L 74.72319657733205 3.5 L 81.72319657733205 0 L 74.72319657733205 -3.5 L 74.72319657733205 -0.5 L 60.761598384033455 -0.5 Z"/><text text-anchor="middle" pointer-events="none" font-size="8px" fill="#000000" x="49.86159828866602" y="3" transform="rotate(180 49.86159828866602 0)" font-family="sans-serif">trek</text></g><g class="relationship" transform="translate(29.552019506891188 151.5392167475124) rotate(382.6424684906894)"><path class="outline" fill="#A5ABB6" stroke="none" d="M 25 0.5 L 39.31498508209164 0.5 L 39.31498508209164 -0.5 L 25 -0.5 Z M 61.1149852728265 0.5 L 75.42997035491814 0.5 L 75.42997035491814 3.5 L 82.42997035491814 0 L 75.42997035491814 -3.5 L 75.42997035491814 -0.5 L 61.1149852728265 -0.5 Z"/><text text-anchor="middle" pointer-events="none" font-size="8px" fill="#000000" x="50.21498517745907" y="3" font-family="sans-serif">trek</text></g><g class="relationship" transform="translate(132.44959164896156 8.07434777276674) rotate(520.0005400666182)"><path class="outline" fill="#A5ABB6" stroke="none" d="M 25 0.5 L 39.33888067456785 0.5 L 39.33888067456785 -0.5 L 25 -0.5 Z M 61.13888086530271 0.5 L 75.47776153987056 0.5 L 75.47776153987056 3.5 L 82.47776153987056 0 L 75.47776153987056 -3.5 L 75.47776153987056 -0.5 L 61.13888086530271 -0.5 Z"/><text text-anchor="middle" pointer-events="none" font-size="8px" fill="#000000" x="50.23888076993528" y="3" transform="rotate(180 50.23888076993528 0)" font-family="sans-serif">trek</text></g><g class="relationship" transform="translate(132.44959164896156 8.07434777276674) rotate(520.0005400666182)"><path class="outline" fill="#A5ABB6" stroke="none" d="M 21.40063509461097,-12.933012701892217 L 21.90063509461097,-12.06698729810778 A 59.96409546257476 59.96409546257476 0 0 1 38.254182416700154,-18.53139202627073 L 38.02690473821497,-19.50522202009018 A 60.96409546257476 60.96409546257476 0 0 0 21.40063509461097,-12.933012701892217 Z M 62.05541221553962,-20.245928564764917 L 61.88854794383257,-19.259948689297026 A 59.96409546257476 59.96409546257476 0 0 1 78.60921194238378,-13.81509479292302 L 77.2720853380227,-11.12956087135178 L 85.09831219344352,-11.142721703009036 L 80.39204741486522,-17.39580668835134 L 79.05492081050414,-14.7102727667801 A 60.96409546257476 60.96409546257476 0 0 0 62.05541221553962,-20.245928564764917"/><text text-anchor="middle" pointer-events="none" font-size="8px" fill="#000000" x="50.019692069662774" y="-17.57194517058469" transform="rotate(180 50.019692069662774 -20.57194517058469)" font-family="sans-serif">road</text></g></g><g class="layer nodes"><g class="node" transform="translate(132.44959164896156,8.07434777276674)"><circle class="outline" cx="0" cy="0" r="25" fill="#F16667" stroke="#eb2728" stroke-width="2px"/><text text-anchor="middle" pointer-events="none" font-family="sans-serif" dy="1.5625" font-size="25" fill="#FFFFFF"/><text text-anchor="middle" pointer-events="none" x="0" y="5" font-size="10px" fill="#FFFFFF" font-family="sans-serif"> Darjeeli…</text></g><g class="node" transform="translate(128.70183758195998,192.89755455428786)"><circle class="outline" cx="0" cy="0" r="25" fill="#8DCC93" stroke="#5db665" stroke-width="2px"/><text text-anchor="middle" pointer-events="none" font-family="sans-serif" dy="1.5625" font-size="25" fill="#2A2C34"/><text text-anchor="middle" pointer-events="none" x="0" y="5" font-size="10px" fill="#2A2C34" font-family="sans-serif"> Sandak…</text></g><g class="node" transform="translate(31.4531857424184,44.8329551944585)"><circle class="outline" cx="0" cy="0" r="25" fill="#F16667" stroke="#eb2728" stroke-width="2px"/><text text-anchor="middle" pointer-events="none" font-family="sans-serif" dy="1.5625" font-size="25" fill="#FFFFFF"/><text text-anchor="middle" pointer-events="none" x="0" y="5" font-size="10px" fill="#FFFFFF" font-family="sans-serif"> Rimbik</text></g><g class="node" transform="translate(29.552019506891188,151.5392167475124)"><circle class="outline" cx="0" cy="0" r="25" fill="#D9C8AE" stroke="#c0a378" stroke-width="2px"/><text text-anchor="middle" pointer-events="none" font-family="sans-serif" dy="1.5625" font-size="25" fill="#2A2C34"/><text text-anchor="middle" pointer-events="none" x="0" y="5" font-size="10px" fill="#2A2C34" font-family="sans-serif"> BhikeB…</text></g></g></svg>