<svg xmlns="http://www.w3.org/2000/svg" width="296.43951416015625" height="294.71368408203125" viewBox="-57.30027389526367 -39.712154388427734 296.43951416015625 294.71368408203125"><title>Neo4j Graph Visualization</title><desc>Created using Neo4j (http://www.neo4j.com/)</desc><g class="layer relationships"><g class="relationship" transform="translate(134.81039111639018 226.00153442924457) rotate(248.31200357214436)"><path class="outline" fill="#A5ABB6" stroke="none" d="M 25 0.5 L 35.41668841406026 0.5 L 35.41668841406026 -0.5 L 25 -0.5 Z M 80.78335330053487 0.5 L 91.20004171459513 0.5 L 91.20004171459513 3.5 L 98.20004171459513 0 L 91.20004171459513 -3.5 L 91.20004171459513 -0.5 L 80.78335330053487 -0.5 Z"/><text text-anchor="middle" pointer-events="none" font-size="8px" fill="#000000" x="58.100020857297565" y="3" transform="rotate(180 58.100020857297565 0)" font-family="sans-serif">ACTED_IN</text></g><g class="relationship" transform="translate(199.3127357887362 167.53890981362542) rotate(206.9803197794979)"><path class="outline" fill="#A5ABB6" stroke="none" d="M 25 0.5 L 35.55130582589218 0.5 L 35.55130582589218 -0.5 L 25 -0.5 Z M 80.91797071236678 0.5 L 91.46927653825897 0.5 L 91.46927653825897 3.5 L 98.46927653825897 0 L 91.46927653825897 -3.5 L 91.46927653825897 -0.5 L 80.91797071236678 -0.5 Z"/><text text-anchor="middle" pointer-events="none" font-size="8px" fill="#000000" x="58.23463826912948" y="3" transform="rotate(180 58.23463826912948 0)" font-family="sans-serif">ACTED_IN</text></g><g class="relationship" transform="translate(210.13924325367068 88.46833379357331) rotate(529.2001593501907)"><path class="outline" fill="#A5ABB6" stroke="none" d="M 25 0.5 L 35.33513954391669 0.5 L 35.33513954391669 -0.5 L 25 -0.5 Z M 80.70180443039129 0.5 L 91.03694397430799 0.5 L 91.03694397430799 3.5 L 98.03694397430799 0 L 91.03694397430799 -3.5 L 91.03694397430799 -0.5 L 80.70180443039129 -0.5 Z"/><text text-anchor="middle" pointer-events="none" font-size="8px" fill="#000000" x="58.018471987153994" y="3" transform="rotate(180 58.018471987153994 0)" font-family="sans-serif">ACTED_IN</text></g><g class="relationship" transform="translate(173.6200447032365 20.56373627983474) rotate(492.8370940878713)"><path class="outline" fill="#A5ABB6" stroke="none" d="M 25 0.5 L 35.104571581153564 0.5 L 35.104571581153564 -0.5 L 25 -0.5 Z M 81.93790364292114 0.5 L 92.0424752240747 0.5 L 92.0424752240747 3.5 L 99.0424752240747 0 L 92.0424752240747 -3.5 L 92.0424752240747 -0.5 L 81.93790364292114 -0.5 Z"/><text text-anchor="middle" pointer-events="none" font-size="8px" fill="#000000" x="58.52123761203735" y="3" transform="rotate(180 58.52123761203735 0)" font-family="sans-serif">DIRECTED</text></g><g class="relationship" transform="translate(103.14273222065236 -10.712155711897273) rotate(456.46957749620617)"><path class="outline" fill="#A5ABB6" stroke="none" d="M 25 0.5 L 35.32585778091198 0.5 L 35.32585778091198 -0.5 L 25 -0.5 Z M 80.69252266738658 0.5 L 91.01838044829857 0.5 L 91.01838044829857 3.5 L 98.01838044829857 0 L 91.01838044829857 -3.5 L 91.01838044829857 -0.5 L 80.69252266738658 -0.5 Z"/><text text-anchor="middle" pointer-events="none" font-size="8px" fill="#000000" x="58.009190224149286" y="3" transform="rotate(180 58.009190224149286 0)" font-family="sans-serif">ACTED_IN</text></g><g class="relationship" transform="translate(25.110320450545256 6.077548240362394) rotate(418.67639907232905)"><path class="outline" fill="#A5ABB6" stroke="none" d="M 25 0.5 L 32.46841994520993 0.5 L 32.46841994520993 -0.5 L 25 -0.5 Z M 83.96841994520993 0.5 L 91.43683989041986 0.5 L 91.43683989041986 3.5 L 98.43683989041986 0 L 91.43683989041986 -3.5 L 91.43683989041986 -0.5 L 83.96841994520993 -0.5 Z"/><text text-anchor="middle" pointer-events="none" font-size="8px" fill="#000000" x="58.21841994520993" y="3" font-family="sans-serif">PRODUCED</text></g><g class="relationship" transform="translate(-28.300273346728186 74.85030700596151) rotate(377.3221415944864)"><path class="outline" fill="#A5ABB6" stroke="none" d="M 25 0.5 L 35.40067592355432 0.5 L 35.40067592355432 -0.5 L 25 -0.5 Z M 80.76734081002893 0.5 L 91.16801673358324 0.5 L 91.16801673358324 3.5 L 98.16801673358324 0 L 91.16801673358324 -3.5 L 91.16801673358324 -0.5 L 80.76734081002893 -0.5 Z"/><text text-anchor="middle" pointer-events="none" font-size="8px" fill="#000000" x="58.08400836679162" y="3" font-family="sans-serif">ACTED_IN</text></g><g class="relationship" transform="translate(-20.71115689825546 164.70190810231887) rotate(334.1972427420102)"><path class="outline" fill="#A5ABB6" stroke="none" d="M 25 0.5 L 39.72851537852531 0.5 L 39.72851537852531 -0.5 L 25 -0.5 Z M 75.44518255381828 0.5 L 90.17369793234359 0.5 L 90.17369793234359 3.5 L 97.17369793234359 0 L 90.17369793234359 -3.5 L 90.17369793234359 -0.5 L 75.44518255381828 -0.5 Z"/><text text-anchor="middle" pointer-events="none" font-size="8px" fill="#000000" x="57.58684896617179" y="3" font-family="sans-serif">WROTE</text></g><g class="relationship" transform="translate(44.66295301594085 225.26945815583076) rotate(291.41824340626476)"><path class="outline" fill="#A5ABB6" stroke="none" d="M 25 0.5 L 39.73404958612823 0.5 L 39.73404958612823 -0.5 L 25 -0.5 Z M 75.4507167614212 0.5 L 90.18476634754943 0.5 L 90.18476634754943 3.5 L 97.18476634754943 0 L 90.18476634754943 -3.5 L 90.18476634754943 -0.5 L 75.4507167614212 -0.5 Z"/><text text-anchor="middle" pointer-events="none" font-size="8px" fill="#000000" x="57.592383173774714" y="3" font-family="sans-serif">WROTE</text></g></g><g class="layer nodes"><g class="node" transform="translate(134.81039111639018,226.00153442924457)"><circle class="outline" cx="0" cy="0" r="25" fill="#F79767" stroke="#f36924" stroke-width="2px"/><text text-anchor="middle" pointer-events="none" font-family="sans-serif" dy="1.5625" font-size="25" fill="#FFFFFF"/><text text-anchor="middle" pointer-events="none" font-family="sans-serif" dy="1.5625" font-size="25" fill="#FFFFFF"/><text text-anchor="middle" pointer-events="none" font-family="sans-serif" dy="1.5625" font-size="25" fill="#FFFFFF"/><text text-anchor="middle" pointer-events="none" x="0" y="-5" font-size="10px" fill="#FFFFFF" font-family="sans-serif"> Tommy</text><text text-anchor="middle" pointer-events="none" x="0" y="5" font-size="10px" fill="#FFFFFF" font-family="sans-serif"> Lee</text><text text-anchor="middle" pointer-events="none" x="0" y="15" font-size="10px" fill="#FFFFFF" font-family="sans-serif"> Jones</text></g><g class="node" transform="translate(89.28155769981252,111.52282197053677)"><circle class="outline" cx="0" cy="0" r="25" fill="#57C7E3" stroke="#23b3d7" stroke-width="2px"/><text text-anchor="middle" pointer-events="none" font-family="sans-serif" dy="1.5625" font-size="25" fill="#2A2C34"/><text text-anchor="middle" pointer-events="none" font-family="sans-serif" dy="1.5625" font-size="25" fill="#2A2C34"/><text text-anchor="middle" pointer-events="none" x="0" y="0" font-size="10px" fill="#2A2C34" font-family="sans-serif"> Captain</text><text text-anchor="middle" pointer-events="none" x="0" y="10" font-size="10px" fill="#2A2C34" font-family="sans-serif"> Americ…</text></g><g class="node" transform="translate(199.3127357887362,167.53890981362542)"><circle class="outline" cx="0" cy="0" r="25" fill="#F79767" stroke="#f36924" stroke-width="2px"/><text text-anchor="middle" pointer-events="none" font-family="sans-serif" dy="1.5625" font-size="25" fill="#FFFFFF"/><text text-anchor="middle" pointer-events="none" font-family="sans-serif" dy="1.5625" font-size="25" fill="#FFFFFF"/><text text-anchor="middle" pointer-events="none" x="0" y="0" font-size="10px" fill="#FFFFFF" font-family="sans-serif"> Chris</text><text text-anchor="middle" pointer-events="none" x="0" y="10" font-size="10px" fill="#FFFFFF" font-family="sans-serif"> Evans</text></g><g class="node" transform="translate(210.13924325367068,88.46833379357331)"><circle class="outline" cx="0" cy="0" r="25" fill="#F79767" stroke="#f36924" stroke-width="2px"/><text text-anchor="middle" pointer-events="none" font-family="sans-serif" dy="1.5625" font-size="25" fill="#FFFFFF"/><text text-anchor="middle" pointer-events="none" font-family="sans-serif" dy="1.5625" font-size="25" fill="#FFFFFF"/><text text-anchor="middle" pointer-events="none" x="0" y="0" font-size="10px" fill="#FFFFFF" font-family="sans-serif"> Hugo</text><text text-anchor="middle" pointer-events="none" x="0" y="10" font-size="10px" fill="#FFFFFF" font-family="sans-serif"> Weavi…</text></g><g class="node" transform="translate(173.6200447032365,20.56373627983474)"><circle class="outline" cx="0" cy="0" r="25" fill="#F79767" stroke="#f36924" stroke-width="2px"/><text text-anchor="middle" pointer-events="none" font-family="sans-serif" dy="1.5625" font-size="25" fill="#FFFFFF"/><text text-anchor="middle" pointer-events="none" font-family="sans-serif" dy="1.5625" font-size="25" fill="#FFFFFF"/><text text-anchor="middle" pointer-events="none" x="0" y="0" font-size="10px" fill="#FFFFFF" font-family="sans-serif"> Joe</text><text text-anchor="middle" pointer-events="none" x="0" y="10" font-size="10px" fill="#FFFFFF" font-family="sans-serif"> Johnst…</text></g><g class="node" transform="translate(103.14273222065236,-10.712155711897273)"><circle class="outline" cx="0" cy="0" r="25" fill="#F79767" stroke="#f36924" stroke-width="2px"/><text text-anchor="middle" pointer-events="none" font-family="sans-serif" dy="1.5625" font-size="25" fill="#FFFFFF"/><text text-anchor="middle" pointer-events="none" x="0" y="5" font-size="10px" fill="#FFFFFF" font-family="sans-serif"> Sebasti…</text></g><g class="node" transform="translate(25.110320450545256,6.077548240362394)"><circle class="outline" cx="0" cy="0" r="25" fill="#F79767" stroke="#f36924" stroke-width="2px"/><text text-anchor="middle" pointer-events="none" font-family="sans-serif" dy="1.5625" font-size="25" fill="#FFFFFF"/><text text-anchor="middle" pointer-events="none" font-family="sans-serif" dy="1.5625" font-size="25" fill="#FFFFFF"/><text text-anchor="middle" pointer-events="none" x="0" y="0" font-size="10px" fill="#FFFFFF" font-family="sans-serif"> Kevin</text><text text-anchor="middle" pointer-events="none" x="0" y="10" font-size="10px" fill="#FFFFFF" font-family="sans-serif"> Feige</text></g><g class="node" transform="translate(-28.300273346728186,74.85030700596151)"><circle class="outline" cx="0" cy="0" r="25" fill="#F79767" stroke="#f36924" stroke-width="2px"/><text text-anchor="middle" pointer-events="none" font-family="sans-serif" dy="1.5625" font-size="25" fill="#FFFFFF"/><text text-anchor="middle" pointer-events="none" font-family="sans-serif" dy="1.5625" font-size="25" fill="#FFFFFF"/><text text-anchor="middle" pointer-events="none" x="0" y="0" font-size="10px" fill="#FFFFFF" font-family="sans-serif"> Hayley</text><text text-anchor="middle" pointer-events="none" x="0" y="10" font-size="10px" fill="#FFFFFF" font-family="sans-serif"> Atwell</text></g><g class="node" transform="translate(-20.71115689825546,164.70190810231887)"><circle class="outline" cx="0" cy="0" r="25" fill="#F79767" stroke="#f36924" stroke-width="2px"/><text text-anchor="middle" pointer-events="none" font-family="sans-serif" dy="1.5625" font-size="25" fill="#FFFFFF"/><text text-anchor="middle" pointer-events="none" font-family="sans-serif" dy="1.5625" font-size="25" fill="#FFFFFF"/><text text-anchor="middle" pointer-events="none" x="0" y="0" font-size="10px" fill="#FFFFFF" font-family="sans-serif"> Stephen</text><text text-anchor="middle" pointer-events="none" x="0" y="10" font-size="10px" fill="#FFFFFF" font-family="sans-serif"> McFeely</text></g><g class="node" transform="translate(44.66295301594085,225.26945815583076)"><circle class="outline" cx="0" cy="0" r="25" fill="#F79767" stroke="#f36924" stroke-width="2px"/><text text-anchor="middle" pointer-events="none" font-family="sans-serif" dy="1.5625" font-size="25" fill="#FFFFFF"/><text text-anchor="middle" pointer-events="none" x="0" y="5" font-size="10px" fill="#FFFFFF" font-family="sans-serif"> Christo…</text></g></g></svg>