<svg xmlns="http://www.w3.org/2000/svg" width="237.08456420898438" height="246.57443237304688" viewBox="-9.252784729003906 -10.465446472167969 237.08456420898438 246.57443237304688"><title>Neo4j Graph Visualization</title><desc>Created using Neo4j (http://www.neo4j.com/)</desc><g class="layer relationships"><g class="relationship" transform="translate(125.4991395604879 127.69741308176734) rotate(407.4548692576885)"><path class="outline" fill="#A5ABB6" stroke="none" d="M 25 0.5 L 27.713523904990275 0.5 L 27.713523904990275 -0.5 L 25 -0.5 Z M 73.07352451534183 0.5 L 75.78704842033211 0.5 L 75.78704842033211 3.5 L 82.78704842033211 0 L 75.78704842033211 -3.5 L 75.78704842033211 -0.5 L 73.07352451534183 -0.5 Z"/><text text-anchor="middle" pointer-events="none" font-size="8px" fill="#000000" x="50.393524210166056" y="3" font-family="sans-serif">ACTED_IN</text></g><g class="relationship" transform="translate(125.4991395604879 127.69741308176734) rotate(310.65470643650434)"><path class="outline" fill="#A5ABB6" stroke="none" d="M 25 0.5 L 30.09993423869966 0.5 L 30.09993423869966 -0.5 L 25 -0.5 Z M 75.45993484905122 0.5 L 80.55986908775088 0.5 L 80.55986908775088 3.5 L 87.55986908775088 0 L 80.55986908775088 -3.5 L 80.55986908775088 -0.5 L 75.45993484905122 -0.5 Z"/><text text-anchor="middle" pointer-events="none" font-size="8px" fill="#000000" x="52.77993454387544" y="3" font-family="sans-serif">ACTED_IN</text></g><g class="relationship" transform="translate(125.4991395604879 127.69741308176734) rotate(254.20570468208223)"><path class="outline" fill="#A5ABB6" stroke="none" d="M 25 0.5 L 30.543001071177386 0.5 L 30.543001071177386 -0.5 L 25 -0.5 Z M 75.90300168152895 0.5 L 81.44600275270633 0.5 L 81.44600275270633 3.5 L 88.44600275270633 0 L 81.44600275270633 -3.5 L 81.44600275270633 -0.5 L 75.90300168152895 -0.5 Z"/><text text-anchor="middle" pointer-events="none" font-size="8px" fill="#000000" x="53.22300137635317" y="3" transform="rotate(180 53.22300137635317 0)" font-family="sans-serif">ACTED_IN</text></g><g class="relationship" transform="translate(125.4991395604879 127.69741308176734) rotate(200.88773227646658)"><path class="outline" fill="#A5ABB6" stroke="none" d="M 25 0.5 L 30.415362065102265 0.5 L 30.415362065102265 -0.5 L 25 -0.5 Z M 75.77536267545383 0.5 L 81.19072474055609 0.5 L 81.19072474055609 3.5 L 88.19072474055609 0 L 81.19072474055609 -3.5 L 81.19072474055609 -0.5 L 75.77536267545383 -0.5 Z"/><text text-anchor="middle" pointer-events="none" font-size="8px" fill="#000000" x="53.095362370278046" y="3" transform="rotate(180 53.095362370278046 0)" font-family="sans-serif">ACTED_IN</text></g><g class="relationship" transform="translate(125.4991395604879 127.69741308176734) rotate(504.2195880815546)"><path class="outline" fill="#A5ABB6" stroke="none" d="M 25 0.5 L 30.220071730363273 0.5 L 30.220071730363273 -0.5 L 25 -0.5 Z M 75.58007234071484 0.5 L 80.80014407107811 0.5 L 80.80014407107811 3.5 L 87.80014407107811 0 L 80.80014407107811 -3.5 L 80.80014407107811 -0.5 L 75.58007234071484 -0.5 Z"/><text text-anchor="middle" pointer-events="none" font-size="8px" fill="#000000" x="52.900072035539054" y="3" transform="rotate(180 52.900072035539054 0)" font-family="sans-serif">ACTED_IN</text></g></g><g class="layer nodes"><g class="node" transform="translate(125.4991395604879,127.69741308176734)"><circle class="outline" cx="0" cy="0" r="25" fill="#F79767" stroke="#f36924" stroke-width="2px"/><text text-anchor="middle" pointer-events="none" font-family="sans-serif" dy="1.5625" font-size="25" fill="#FFFFFF"/><text text-anchor="middle" pointer-events="none" font-family="sans-serif" dy="1.5625" font-size="25" fill="#FFFFFF"/><text text-anchor="middle" pointer-events="none" x="0" y="0" font-size="10px" fill="#FFFFFF" font-family="sans-serif"> Hugo</text><text text-anchor="middle" pointer-events="none" x="0" y="10" font-size="10px" fill="#FFFFFF" font-family="sans-serif"> Weavi…</text></g><g class="node" transform="translate(198.38158748912494,207.1089776746938)"><circle class="outline" cx="0" cy="0" r="25" fill="#57C7E3" stroke="#23b3d7" stroke-width="2px"/><text text-anchor="middle" pointer-events="none" font-family="sans-serif" dy="1.5625" font-size="25" fill="#2A2C34"/><text text-anchor="middle" pointer-events="none" font-family="sans-serif" dy="1.5625" font-size="25" fill="#2A2C34"/><text text-anchor="middle" pointer-events="none" x="0" y="0" font-size="10px" fill="#2A2C34" font-family="sans-serif"> Cloud</text><text text-anchor="middle" pointer-events="none" x="0" y="10" font-size="10px" fill="#2A2C34" font-family="sans-serif"> Atlas</text></g><g class="node" transform="translate(198.831768024762,42.30391372981225)"><circle class="outline" cx="0" cy="0" r="25" fill="#57C7E3" stroke="#23b3d7" stroke-width="2px"/><text text-anchor="middle" pointer-events="none" font-family="sans-serif" dy="1.5625" font-size="25" fill="#2A2C34"/><text text-anchor="middle" pointer-events="none" font-family="sans-serif" dy="1.5625" font-size="25" fill="#2A2C34"/><text text-anchor="middle" pointer-events="none" x="0" y="0" font-size="10px" fill="#2A2C34" font-family="sans-serif"> V for</text><text text-anchor="middle" pointer-events="none" x="0" y="10" font-size="10px" fill="#2A2C34" font-family="sans-serif"> Vendet…</text></g><g class="node" transform="translate(94.62090260526638,18.5345529914223)"><circle class="outline" cx="0" cy="0" r="25" fill="#57C7E3" stroke="#23b3d7" stroke-width="2px"/><text text-anchor="middle" pointer-events="none" font-family="sans-serif" dy="1.5625" font-size="25" fill="#2A2C34"/><text text-anchor="middle" pointer-events="none" font-family="sans-serif" dy="1.5625" font-size="25" fill="#2A2C34"/><text text-anchor="middle" pointer-events="none" font-family="sans-serif" dy="1.5625" font-size="25" fill="#2A2C34"/><text text-anchor="middle" pointer-events="none" x="0" y="-5" font-size="10px" fill="#2A2C34" font-family="sans-serif"> The</text><text text-anchor="middle" pointer-events="none" x="0" y="5" font-size="10px" fill="#2A2C34" font-family="sans-serif"> Matrix</text><text text-anchor="middle" pointer-events="none" x="0" y="15" font-size="10px" fill="#2A2C34" font-family="sans-serif"> Revol…</text></g><g class="node" transform="translate(19.747214752284997,87.34062224487677)"><circle class="outline" cx="0" cy="0" r="25" fill="#57C7E3" stroke="#23b3d7" stroke-width="2px"/><text text-anchor="middle" pointer-events="none" font-family="sans-serif" dy="1.5625" font-size="25" fill="#2A2C34"/><text text-anchor="middle" pointer-events="none" font-family="sans-serif" dy="1.5625" font-size="25" fill="#2A2C34"/><text text-anchor="middle" pointer-events="none" font-family="sans-serif" dy="1.5625" font-size="25" fill="#2A2C34"/><text text-anchor="middle" pointer-events="none" x="0" y="-5" font-size="10px" fill="#2A2C34" font-family="sans-serif"> The</text><text text-anchor="middle" pointer-events="none" x="0" y="5" font-size="10px" fill="#2A2C34" font-family="sans-serif"> Matrix</text><text text-anchor="middle" pointer-events="none" x="0" y="15" font-size="10px" fill="#2A2C34" font-family="sans-serif"> Reloa…</text></g><g class="node" transform="translate(33.988471130411426,193.64944160202273)"><circle class="outline" cx="0" cy="0" r="25" fill="#57C7E3" stroke="#23b3d7" stroke-width="2px"/><text text-anchor="middle" pointer-events="none" font-family="sans-serif" dy="1.5625" font-size="25" fill="#2A2C34"/><text text-anchor="middle" pointer-events="none" font-family="sans-serif" dy="1.5625" font-size="25" fill="#2A2C34"/><text text-anchor="middle" pointer-events="none" x="0" y="0" font-size="10px" fill="#2A2C34" font-family="sans-serif"> The</text><text text-anchor="middle" pointer-events="none" x="0" y="10" font-size="10px" fill="#2A2C34" font-family="sans-serif"> Matrix</text></g></g></svg>