<svg xmlns="http://www.w3.org/2000/svg" width="372.3719787597656" height="344.1047668457031" viewBox="-93.3261947631836 -50.71098709106445 372.3719787597656 344.1047668457031"><title>Neo4j Graph Visualization</title><desc>Created using Neo4j (http://www.neo4j.com/)</desc><g class="layer relationships"><g class="relationship" transform="translate(208.4454152800346 234.70872107792098) rotate(523.72368617428)"><path class="outline" fill="#A5ABB6" stroke="none" d="M 21.40063509461097,12.933012701892217 L 21.90063509461097,12.06698729810778 A 58.3474816834538 58.3474816834538 0 0 0 24.711120483303894,13.588553990677966 L 24.259288549989964,14.480657069945039 A 59.3474816834538 59.3474816834538 0 0 1 21.40063509461097,12.933012701892217 Z M 74.53069842184705,16.051946295796277 L 74.13546139038175,15.133367127211173 A 58.3474816834538 58.3474816834538 0 0 0 77.03548446876647,13.79028877326772 L 75.70066549543326,11.103607119548826 L 83.52687815633274,11.123491444443388 L 78.8152430998774,17.372530978226244 L 77.4804241265442,14.68584932450735 A 59.3474816834538 59.3474816834538 0 0 1 74.53069842184705,16.051946295796277"/><text text-anchor="middle" pointer-events="none" font-size="8px" fill="#000000" x="49.23592979093723" y="23.35534326387166" transform="rotate(180 49.23592979093723 20.35534326387166)" font-family="sans-serif">PRODUCED</text></g><g class="relationship" transform="translate(208.4454152800346 234.70872107792098) rotate(523.72368617428)"><path class="outline" fill="#A5ABB6" stroke="none" d="M 25 0.5 L 26.04794612124966 0.5 L 26.04794612124966 -0.5 L 25 -0.5 Z M 72.86794581607387 0.5 L 73.91589193732354 0.5 L 73.91589193732354 3.5 L 80.91589193732354 0 L 73.91589193732354 -3.5 L 73.91589193732354 -0.5 L 72.86794581607387 -0.5 Z"/><text text-anchor="middle" pointer-events="none" font-size="8px" fill="#000000" x="49.45794596866177" y="3" transform="rotate(180 49.45794596866177 0)" font-family="sans-serif">DIRECTED</text></g><g class="relationship" transform="translate(208.4454152800346 234.70872107792098) rotate(523.72368617428)"><path class="outline" fill="#A5ABB6" stroke="none" d="M 21.40063509461097,-12.933012701892217 L 21.90063509461097,-12.06698729810778 A 58.3474816834538 58.3474816834538 0 0 1 31.910402886628557,-16.64711808058054 L 31.581957296574174,-17.59164097303674 A 59.3474816834538 59.3474816834538 0 0 0 21.40063509461097,-12.933012701892217 Z M 67.02803863335114,-18.699547949290142 L 66.75922077883617,-17.7363569188637 A 58.3474816834538 58.3474816834538 0 0 1 77.03548446876647,-13.79028877326772 L 75.70066549543326,-11.103607119548826 L 83.52687815633274,-11.123491444443388 L 78.8152430998774,-17.372530978226244 L 77.4804241265442,-14.68584932450735 A 59.3474816834538 59.3474816834538 0 0 0 67.02803863335114,-18.699547949290142"/><text text-anchor="middle" pointer-events="none" font-size="8px" fill="#000000" x="49.235929790937234" y="-17.35534326387166" transform="rotate(180 49.235929790937234 -20.35534326387166)" font-family="sans-serif">WROTE</text></g><g class="relationship" transform="translate(250.04578881126577 5.993530589312319) rotate(508.08487219861524)"><path class="outline" fill="#A5ABB6" stroke="none" d="M 24.018736134675446,6.953439040707552 L 24.277555179777966,5.987513214418485 A 101.05981479493437 101.05981479493437 0 0 0 25.74849745407318,6.369819839940774 L 25.504233573922033,7.3395286399696715 A 102.05981479493437 102.05981479493437 0 0 1 24.018736134675446,6.953439040707552 Z M 72.13303101835473,8.097590871250617 L 71.92041774721845,7.120454444267807 A 101.05981479493437 101.05981479493437 0 0 0 73.4030100055938,6.786164561632141 L 72.72115886301171,3.864678806171488 L 80.33345195876566,5.682092854850717 L 74.3121448623699,10.681478902246345 L 73.63029371978782,7.759993146785693 A 102.05981479493437 102.05981479493437 0 0 1 72.13303101835473,8.097590871250617"/><text text-anchor="middle" pointer-events="none" font-size="8px" fill="#000000" x="48.78288126098478" y="12.917624301787868" transform="rotate(180 48.78288126098478 9.917624301787868)" font-family="sans-serif">DIRECTED</text></g><g class="relationship" transform="translate(250.04578881126577 5.993530589312319) rotate(508.08487219861524)"><path class="outline" fill="#A5ABB6" stroke="none" d="M 24.018736134675446,-6.953439040707552 L 24.277555179777966,-5.987513214418485 A 101.05981479493437 101.05981479493437 0 0 1 31.14295458621558,-7.572795607059504 L 30.952069560390342,-8.554408008629338 A 102.05981479493437 102.05981479493437 0 0 0 24.018736134675446,-6.953439040707552 Z M 66.64858294297495,-9.134739907945416 L 66.48970725784547,-8.147441312446247 A 101.05981479493437 101.05981479493437 0 0 1 73.4030100055938,-6.786164561632141 L 72.72115886301171,-3.864678806171488 L 80.33345195876566,-5.682092854850717 L 74.3121448623699,-10.681478902246345 L 73.63029371978782,-7.759993146785693 A 102.05981479493437 102.05981479493437 0 0 0 66.64858294297495,-9.134739907945416"/><text text-anchor="middle" pointer-events="none" font-size="8px" fill="#000000" x="48.78288126098479" y="-6.917624301787868" transform="rotate(180 48.78288126098479 -9.917624301787868)" font-family="sans-serif">WROTE</text></g><g class="relationship" transform="translate(93.9025972153335 -21.710987660373505) rotate(410.9833072870353)"><path class="outline" fill="#A5ABB6" stroke="none" d="M 24.018736134675446,6.953439040707552 L 24.277555179777966,5.987513214418485 A 105.47008488350296 105.47008488350296 0 0 0 26.827322863455283,6.63674481714034 L 26.59267908744915,7.608826242938406 A 106.47008488350296 106.47008488350296 0 0 1 24.018736134675446,6.953439040707552 Z M 73.24598075715642,8.352575369688822 L 73.04244228017802,7.373508421830138 A 105.47008488350296 105.47008488350296 0 0 0 75.61160915388052,6.805883114283219 L 74.9279161234571,3.8848278528835927 L 82.54135360221689,5.697441920195175 L 76.52319986111175,10.700623462816054 L 75.83950683068832,7.779568201416428 A 106.47008488350296 106.47008488350296 0 0 1 73.24598075715642,8.352575369688822"/><text text-anchor="middle" pointer-events="none" font-size="8px" fill="#000000" x="49.88605640116593" y="13.067855686069166" font-family="sans-serif">DIRECTED</text></g><g class="relationship" transform="translate(93.9025972153335 -21.710987660373505) rotate(410.9833072870353)"><path class="outline" fill="#A5ABB6" stroke="none" d="M 24.018736134675446,-6.953439040707552 L 24.277555179777966,-5.987513214418485 A 105.47008488350296 105.47008488350296 0 0 1 32.233290580930145,-7.792614044574549 L 32.049902738997126,-8.775654684340338 A 106.47008488350296 106.47008488350296 0 0 0 24.018736134675446,-6.953439040707552 Z M 67.75433648028104,-9.34485644425439 L 67.60237722654534,-8.356469685336563 A 105.47008488350296 105.47008488350296 0 0 1 75.61160915388052,-6.805883114283219 L 74.9279161234571,-3.8848278528835927 L 82.54135360221689,-5.697441920195175 L 76.52319986111175,-10.700623462816054 L 75.83950683068832,-7.779568201416428 A 106.47008488350296 106.47008488350296 0 0 0 67.75433648028104,-9.34485644425439"/><text text-anchor="middle" pointer-events="none" font-size="8px" fill="#000000" x="49.88605640116592" y="-7.067855686069166" font-family="sans-serif">WROTE</text></g><g class="relationship" transform="translate(-54.38878712591943 157.36364114227442) rotate(264.6302583266729)"><path class="outline" fill="#A5ABB6" stroke="none" d="M 21.40063509461097,12.933012701892217 L 21.90063509461097,12.06698729810778 A 58.629927970444406 58.629927970444406 0 0 0 32.04334083890929,16.698595091257147 L 31.71633620314394,17.643617825474678 A 59.629927970444406 59.629927970444406 0 0 1 21.40063509461097,12.933012701892217 Z M 67.16629038418269,18.748953343727266 L 66.89879565716817,17.785394019648344 A 58.629927970444406 58.629927970444406 0 0 0 77.31034710973643,13.794671413965531 L 75.97512042944487,11.108192359098812 L 83.80133601780737,11.126889002429676 L 79.09064935012518,17.376643487121157 L 77.75542266983362,14.690164432254438 A 59.629927970444406 59.629927970444406 0 0 1 67.16629038418269,18.748953343727266"/><text text-anchor="middle" pointer-events="none" font-size="8px" fill="#000000" x="49.37281356946427" y="23.393186022676815" transform="rotate(180 49.37281356946427 20.393186022676815)" font-family="sans-serif">WROTE</text></g><g class="relationship" transform="translate(-54.38878712591943 157.36364114227442) rotate(264.6302583266729)"><path class="outline" fill="#A5ABB6" stroke="none" d="M 25 0.5 L 26.184330890102906 0.5 L 26.184330890102906 -0.5 L 25 -0.5 Z M 73.00433058492712 0.5 L 74.18866147503003 0.5 L 74.18866147503003 3.5 L 81.18866147503003 0 L 74.18866147503003 -3.5 L 74.18866147503003 -0.5 L 73.00433058492712 -0.5 Z"/><text text-anchor="middle" pointer-events="none" font-size="8px" fill="#000000" x="49.594330737515016" y="3" transform="rotate(180 49.594330737515016 0)" font-family="sans-serif">DIRECTED</text></g><g class="relationship" transform="translate(-54.38878712591943 157.36364114227442) rotate(264.6302583266729)"><path class="outline" fill="#A5ABB6" stroke="none" d="M 21.40063509461097,-12.933012701892217 L 21.90063509461097,-12.06698729810778 A 58.629927970444406 58.629927970444406 0 0 1 24.838079353653306,-13.653176830071054 L 24.388180801168698,-14.546256497554445 A 59.629927970444406 59.629927970444406 0 0 0 21.40063509461097,-12.933012701892217 Z M 74.67317560881622,-16.114151071188886 L 74.27978964764904,-15.194777651105092 A 58.629927970444406 58.629927970444406 0 0 1 77.31034710973643,-13.794671413965531 L 75.97512042944487,-11.108192359098812 L 83.80133601780737,-11.126889002429676 L 79.09064935012518,-17.376643487121157 L 77.75542266983362,-14.690164432254438 A 59.629927970444406 59.629927970444406 0 0 0 74.67317560881622,-16.114151071188886"/><text text-anchor="middle" pointer-events="none" font-size="8px" fill="#000000" x="49.37281356946427" y="-17.393186022676815" transform="rotate(180 49.37281356946427 -20.393186022676815)" font-family="sans-serif">PRODUCED</text></g></g><g class="layer nodes"><g class="node" transform="translate(106.77450116147654,264.39375749655426)"><circle class="outline" cx="0" cy="0" r="25" fill="#57C7E3" stroke="#23b3d7" stroke-width="2px"/><text text-anchor="middle" pointer-events="none" font-family="sans-serif" dy="1.5625" font-size="25" fill="#2A2C34"/><text text-anchor="middle" pointer-events="none" font-family="sans-serif" dy="1.5625" font-size="25" fill="#2A2C34"/><text text-anchor="middle" pointer-events="none" x="0" y="0" font-size="10px" fill="#2A2C34" font-family="sans-serif"> Jerry</text><text text-anchor="middle" pointer-events="none" x="0" y="10" font-size="10px" fill="#2A2C34" font-family="sans-serif"> Maguire</text></g><g class="node" transform="translate(208.4454152800346,234.70872107792098)"><circle class="outline" cx="0" cy="0" r="25" fill="#F79767" stroke="#f36924" stroke-width="2px"/><text text-anchor="middle" pointer-events="none" font-family="sans-serif" dy="1.5625" font-size="25" fill="#FFFFFF"/><text text-anchor="middle" pointer-events="none" x="0" y="5" font-size="10px" fill="#FFFFFF" font-family="sans-serif"> Cameron</text></g><g class="node" transform="translate(161.19074839946583,61.333477380873724)"><circle class="outline" cx="0" cy="0" r="25" fill="#57C7E3" stroke="#23b3d7" stroke-width="2px"/><text text-anchor="middle" pointer-events="none" font-family="sans-serif" dy="1.5625" font-size="25" fill="#2A2C34"/><text text-anchor="middle" pointer-events="none" font-family="sans-serif" dy="1.5625" font-size="25" fill="#2A2C34"/><text text-anchor="middle" pointer-events="none" x="0" y="0" font-size="10px" fill="#2A2C34" font-family="sans-serif"> Speed</text><text text-anchor="middle" pointer-events="none" x="0" y="10" font-size="10px" fill="#2A2C34" font-family="sans-serif"> Racer</text></g><g class="node" transform="translate(250.04578881126577,5.993530589312319)"><circle class="outline" cx="0" cy="0" r="25" fill="#F79767" stroke="#f36924" stroke-width="2px"/><text text-anchor="middle" pointer-events="none" font-family="sans-serif" dy="1.5625" font-size="25" fill="#FFFFFF"/><text text-anchor="middle" pointer-events="none" font-family="sans-serif" dy="1.5625" font-size="25" fill="#FFFFFF"/><text text-anchor="middle" pointer-events="none" x="0" y="0" font-size="10px" fill="#FFFFFF" font-family="sans-serif"> Lana</text><text text-anchor="middle" pointer-events="none" x="0" y="10" font-size="10px" fill="#FFFFFF" font-family="sans-serif"> Wacho…</text></g><g class="node" transform="translate(93.9025972153335,-21.710987660373505)"><circle class="outline" cx="0" cy="0" r="25" fill="#F79767" stroke="#f36924" stroke-width="2px"/><text text-anchor="middle" pointer-events="none" font-family="sans-serif" dy="1.5625" font-size="25" fill="#FFFFFF"/><text text-anchor="middle" pointer-events="none" font-family="sans-serif" dy="1.5625" font-size="25" fill="#FFFFFF"/><text text-anchor="middle" pointer-events="none" x="0" y="0" font-size="10px" fill="#FFFFFF" font-family="sans-serif"> Lilly</text><text text-anchor="middle" pointer-events="none" x="0" y="10" font-size="10px" fill="#FFFFFF" font-family="sans-serif"> Wacho…</text></g><g class="node" transform="translate(-64.32619141987121,51.640985945968076)"><circle class="outline" cx="0" cy="0" r="25" fill="#57C7E3" stroke="#23b3d7" stroke-width="2px"/><text text-anchor="middle" pointer-events="none" font-family="sans-serif" dy="1.5625" font-size="25" fill="#2A2C34"/><text text-anchor="middle" pointer-events="none" x="0" y="5" font-size="10px" fill="#2A2C34" font-family="sans-serif"> Someth…</text></g><g class="node" transform="translate(-54.38878712591943,157.36364114227442)"><circle class="outline" cx="0" cy="0" r="25" fill="#F79767" stroke="#f36924" stroke-width="2px"/><text text-anchor="middle" pointer-events="none" font-family="sans-serif" dy="1.5625" font-size="25" fill="#FFFFFF"/><text text-anchor="middle" pointer-events="none" font-family="sans-serif" dy="1.5625" font-size="25" fill="#FFFFFF"/><text text-anchor="middle" pointer-events="none" x="0" y="0" font-size="10px" fill="#FFFFFF" font-family="sans-serif"> Nancy</text><text text-anchor="middle" pointer-events="none" x="0" y="10" font-size="10px" fill="#FFFFFF" font-family="sans-serif"> Meyers</text></g></g></svg>